<?xml version="1.0" encoding="UTF-8"?>
<svg xmlns="http://www.w3.org/2000/svg" xmlns:xlink="http://www.w3.org/1999/xlink"
     width="712.5" height="656.25" viewBox="-25 0 570.0 525.0">
<defs>
</defs>
<path d="M10,25 L25,25" stroke-width="1" stroke="black" stroke-linejoin="miter" fill="none" />
<path d="M10,75 L25,75" stroke-width="1" stroke="black" stroke-linejoin="miter" fill="none" />
<path d="M10,125 L25,125" stroke-width="1" stroke="black" stroke-linejoin="miter" fill="none" />
<path d="M10,175 L25,175" stroke-width="1" stroke="black" stroke-linejoin="miter" fill="none" />
<path d="M37.9442,25.0002 C51.653800000000004,25.0002,51.5923,50.0,65.3019,50.0 M65.3038,50.0 C51.59219999999999,50.0,51.6538,74.9998,37.94409999999999,74.9998 M65.3038,49.99999999999999 L87.1884,49.99999999999999 M87.1884,49.99999999999999 C100.9,49.99999999999999,100.83840000000001,25.000199999999992,114.5481,25.000199999999992 M87.1884,49.99999999999999 C100.9,49.99999999999999,100.83840000000001,74.9998,114.5481,74.9998 M25.0,24.999999999999993 L38.0,24.999999999999993 M38.0019,74.9998 L25.0,74.9998 M112.6453,74.9998 L125.0,74.9998 M112.1944,24.999799999999993 L125.0,24.999799999999993" stroke-width="1" stroke="black" stroke-linejoin="miter" fill="none" />
<text x="75" y="38" font-size="7" text-anchor="middle"></text>
<path d="M97,53 L107,53 L107,63 L97,63 Z" stroke="black" fill="aquamarine" stroke-linejoin="miter" />
<text x="102" y="60" font-size="6" text-anchor="middle">H</text>
<path d="M25,125 L75,125" stroke="black" stroke-width="1" fill="none" />
<path d="M25,175 L75,175" stroke="black" stroke-width="1" fill="none" />
<path d="M27.5,102.5 L72.5,102.5 L72.5,197.5 L27.5,197.5 Z" stroke="black" fill="white" stroke-linejoin="miter" />
<text x="35" y="116" font-size="8" text-anchor="start" font-weight="bold">HP</text>
<path d="M87.9442,125.0002 C101.65379999999999,125.0002,101.5923,150.0,115.30189999999999,150.0 M115.3038,150.0 C101.59219999999999,150.0,101.65379999999999,174.9998,87.94409999999999,174.9998 M115.3038,150.0 L137.1884,150.0 M137.1884,150.0 C150.9,150.0,150.8384,125.0002,164.5481,125.0002 M137.1884,150.0 C150.9,150.0,150.8384,174.9998,164.5481,174.9998 M75.0,125.0 L88.0,125.0 M88.0019,174.9998 L75.0,174.9998 M162.64530000000002,174.9998 L175.0,174.9998 M162.1944,124.9998 L175.0,124.9998" stroke-width="1" stroke="black" stroke-linejoin="miter" fill="none" />
<text x="125" y="138" font-size="7" text-anchor="middle">Θ=pi/3</text>
<path d="M147,153 L157,153 L157,163 L147,163 Z" stroke="black" fill="lightsalmon" stroke-linejoin="miter" />
<text x="152" y="160" font-size="6" text-anchor="middle">Ry</text>
<path d="M125,25 L175,25" stroke="black" stroke-width="1" fill="none" />
<path d="M125,75 L175,75" stroke="black" stroke-width="1" fill="none" />
<path d="M175,25 L225,25" stroke="black" stroke-width="1" fill="none" />
<path d="M175,75 L225,75" stroke="black" stroke-width="1" fill="none" />
<path d="M175,125 L225,125" stroke="black" stroke-width="1" fill="none" />
<path d="M175,175 L225,175" stroke="black" stroke-width="1" fill="none" />
<path d="M175,225 L225,225" stroke="black" stroke-width="1" fill="none" />
<path d="M175,275 L225,275" stroke="black" stroke-width="1" fill="none" />
<path d="M175,325 L225,325" stroke="black" stroke-width="1" fill="none" />
<path d="M175,375 L225,375" stroke="black" stroke-width="1" fill="none" />
<path d="M177.5,2.5 L222.5,2.5 L222.5,397.5 L177.5,397.5 Z" stroke="black" fill="white" stroke-linejoin="miter" />
<text x="185" y="24" font-size="8" text-anchor="start" font-weight="bold"><tspan x="185" dy="0em">HERALDED</tspan><tspan x="185" dy="1em">CNOT</tspan></text>
<path d="M237.9442,125.0002 C251.6538,125.0002,251.5923,150.0,265.3019,150.0 M265.30379999999997,150.0 C251.59219999999996,150.0,251.65379999999996,174.9998,237.94409999999996,174.9998 M265.30379999999997,150.0 L287.18839999999994,150.0 M287.18839999999994,150.0 C300.9,150.0,300.8384,125.0002,314.5481,125.0002 M287.1884,150.0 C300.9,150.0,300.8384,174.9998,314.5481,174.9998 M224.99999999999997,125.0 L237.99999999999997,125.0 M238.00189999999998,174.9998 L224.99999999999997,174.9998 M312.64529999999996,174.9998 L324.99999999999994,174.9998 M312.1944,124.9998 L325.0,124.9998" stroke-width="1" stroke="black" stroke-linejoin="miter" fill="none" />
<text x="275" y="138" font-size="7" text-anchor="middle">Θ=11*pi/3</text>
<path d="M297,153 L307,153 L307,163 L297,163 Z" stroke="black" fill="lightsalmon" stroke-linejoin="miter" />
<text x="302" y="160" font-size="6" text-anchor="middle">Ry</text>
<path d="M237.9442,25.0002 C251.6538,25.0002,251.5923,50.0,265.3019,50.0 M265.30379999999997,50.0 C251.59219999999996,50.0,251.65379999999996,74.9998,237.94409999999996,74.9998 M265.30379999999997,49.99999999999999 L287.18839999999994,49.99999999999999 M287.18839999999994,49.99999999999999 C300.9,49.99999999999999,300.8384,25.000199999999992,314.5481,25.000199999999992 M287.1884,49.99999999999999 C300.9,49.99999999999999,300.8384,74.9998,314.5481,74.9998 M224.99999999999997,24.999999999999993 L237.99999999999997,24.999999999999993 M238.00189999999998,74.9998 L224.99999999999997,74.9998 M312.64529999999996,74.9998 L324.99999999999994,74.9998 M312.1944,24.999799999999993 L325.0,24.999799999999993" stroke-width="1" stroke="black" stroke-linejoin="miter" fill="none" />
<text x="275" y="38" font-size="7" text-anchor="middle"></text>
<path d="M297,53 L307,53 L307,63 L297,63 Z" stroke="black" fill="aquamarine" stroke-linejoin="miter" />
<text x="302" y="60" font-size="6" text-anchor="middle">H</text>
<path d="M325,24.8 C345,25,355,125,375,125" stroke-width="2" stroke="white" stroke-linejoin="miter" fill="none" />
<path d="M325,25 C345,25,355,125,375,125" stroke-width="1" stroke="black" stroke-linejoin="miter" fill="none" />
<path d="M325,74.8 C345,75,355,175,375,175" stroke-width="2" stroke="white" stroke-linejoin="miter" fill="none" />
<path d="M325,75 C345,75,355,175,375,175" stroke-width="1" stroke="black" stroke-linejoin="miter" fill="none" />
<path d="M325,124.8 C345,125,355,25,375,25" stroke-width="2" stroke="white" stroke-linejoin="miter" fill="none" />
<path d="M325,125 C345,125,355,25,375,25" stroke-width="1" stroke="black" stroke-linejoin="miter" fill="none" />
<path d="M325,174.8 C345,175,355,75,375,75" stroke-width="2" stroke="white" stroke-linejoin="miter" fill="none" />
<path d="M325,175 C345,175,355,75,375,75" stroke-width="1" stroke="black" stroke-linejoin="miter" fill="none" />
<path d="M375,25 L425,25" stroke="black" stroke-width="1" fill="none" />
<path d="M375,75 L425,75" stroke="black" stroke-width="1" fill="none" />
<path d="M375,125 L425,125" stroke="black" stroke-width="1" fill="none" />
<path d="M375,175 L425,175" stroke="black" stroke-width="1" fill="none" />
<path d="M375,225 L425,225" stroke="black" stroke-width="1" fill="none" />
<path d="M375,275 L425,275" stroke="black" stroke-width="1" fill="none" />
<path d="M375,325 L425,325" stroke="black" stroke-width="1" fill="none" />
<path d="M375,375 L425,375" stroke="black" stroke-width="1" fill="none" />
<path d="M377.5,2.5 L422.5,2.5 L422.5,397.5 L377.5,397.5 Z" stroke="black" fill="white" stroke-linejoin="miter" />
<text x="385" y="24" font-size="8" text-anchor="start" font-weight="bold"><tspan x="385" dy="0em">HERALDED</tspan><tspan x="385" dy="1em">CNOT</tspan></text>
<path d="M425,24.8 C445,25,455,125,475,125" stroke-width="2" stroke="white" stroke-linejoin="miter" fill="none" />
<path d="M425,25 C445,25,455,125,475,125" stroke-width="1" stroke="black" stroke-linejoin="miter" fill="none" />
<path d="M425,74.8 C445,75,455,175,475,175" stroke-width="2" stroke="white" stroke-linejoin="miter" fill="none" />
<path d="M425,75 C445,75,455,175,475,175" stroke-width="1" stroke="black" stroke-linejoin="miter" fill="none" />
<path d="M425,124.8 C445,125,455,25,475,25" stroke-width="2" stroke="white" stroke-linejoin="miter" fill="none" />
<path d="M425,125 C445,125,455,25,475,25" stroke-width="1" stroke="black" stroke-linejoin="miter" fill="none" />
<path d="M425,174.8 C445,175,455,75,475,75" stroke-width="2" stroke="white" stroke-linejoin="miter" fill="none" />
<path d="M425,175 C445,175,455,75,475,75" stroke-width="1" stroke="black" stroke-linejoin="miter" fill="none" />
<path d="M475,25 L490,25" stroke-width="1" stroke="black" stroke-linejoin="miter" fill="none" />
<path d="M475,75 L490,75" stroke-width="1" stroke="black" stroke-linejoin="miter" fill="none" />
<path d="M475,125 L490,125" stroke-width="1" stroke="black" stroke-linejoin="miter" fill="none" />
<path d="M475,175 L490,175" stroke-width="1" stroke="black" stroke-linejoin="miter" fill="none" />
<path d="M157,225 C157,225,157,215,167,215 L175,215 L175,235 L167,235 C157,235,157,225,157,225 L157,225" stroke-width="1" stroke="black" stroke-linejoin="miter" fill="white" />
<text x="163" y="241" font-size="6" text-anchor="middle" font-style="italic">[herald0]</text>
<text x="167" y="228" font-size="7" text-anchor="middle">0</text>
<path d="M157,275 C157,275,157,265,167,265 L175,265 L175,285 L167,285 C157,285,157,275,157,275 L157,275" stroke-width="1" stroke="black" stroke-linejoin="miter" fill="white" />
<text x="163" y="291" font-size="6" text-anchor="middle" font-style="italic">[herald1]</text>
<text x="167" y="278" font-size="7" text-anchor="middle">1</text>
<path d="M157,325 C157,325,157,315,167,315 L175,315 L175,335 L167,335 C157,335,157,325,157,325 L157,325" stroke-width="1" stroke="black" stroke-linejoin="miter" fill="white" />
<text x="163" y="341" font-size="6" text-anchor="middle" font-style="italic">[herald2]</text>
<text x="167" y="328" font-size="7" text-anchor="middle">0</text>
<path d="M157,375 C157,375,157,365,167,365 L175,365 L175,385 L167,385 C157,385,157,375,157,375 L157,375" stroke-width="1" stroke="black" stroke-linejoin="miter" fill="white" />
<text x="163" y="391" font-size="6" text-anchor="middle" font-style="italic">[herald3]</text>
<text x="167" y="378" font-size="7" text-anchor="middle">1</text>
<path d="M357,225 C357,225,357,215,367,215 L375,215 L375,235 L367,235 C357,235,357,225,357,225 L357,225" stroke-width="1" stroke="black" stroke-linejoin="miter" fill="white" />
<text x="363" y="241" font-size="6" text-anchor="middle" font-style="italic">[herald4]</text>
<text x="367" y="228" font-size="7" text-anchor="middle">0</text>
<path d="M357,275 C357,275,357,265,367,265 L375,265 L375,285 L367,285 C357,285,357,275,357,275 L357,275" stroke-width="1" stroke="black" stroke-linejoin="miter" fill="white" />
<text x="363" y="291" font-size="6" text-anchor="middle" font-style="italic">[herald5]</text>
<text x="367" y="278" font-size="7" text-anchor="middle">1</text>
<path d="M357,325 C357,325,357,315,367,315 L375,315 L375,335 L367,335 C357,335,357,325,357,325 L357,325" stroke-width="1" stroke="black" stroke-linejoin="miter" fill="white" />
<text x="363" y="341" font-size="6" text-anchor="middle" font-style="italic">[herald6]</text>
<text x="367" y="328" font-size="7" text-anchor="middle">0</text>
<path d="M357,375 C357,375,357,365,367,365 L375,365 L375,385 L367,385 C357,385,357,375,357,375 L357,375" stroke-width="1" stroke="black" stroke-linejoin="miter" fill="white" />
<text x="363" y="391" font-size="6" text-anchor="middle" font-style="italic">[herald7]</text>
<text x="367" y="378" font-size="7" text-anchor="middle">1</text>
<path d="M490,15 L502,15 L502,85 L490,85 Z" stroke="black" fill="white" stroke-linejoin="miter" />
<text x="496" y="27" font-size="7" text-anchor="middle">0</text>
<text x="496" y="77" font-size="7" text-anchor="middle">1</text>
<text x="502" y="91" font-size="6" text-anchor="end" font-style="italic">[ctrl]</text>
<path d="M490,115 L502,115 L502,185 L490,185 Z" stroke="black" fill="white" stroke-linejoin="miter" />
<text x="496" y="127" font-size="7" text-anchor="middle">2</text>
<text x="496" y="177" font-size="7" text-anchor="middle">3</text>
<text x="502" y="191" font-size="6" text-anchor="end" font-style="italic">[data]</text>
<path d="M233,235 L225,235 L225,215 L233,215 C233,215,243,215,243,225 C243,235,233,235,233,235 L233,235" stroke-width="1" stroke="black" stroke-linejoin="miter" fill="white" />
<text x="238" y="241" font-size="6" text-anchor="middle" font-style="italic">[herald0]</text>
<text x="233" y="228" font-size="7" text-anchor="middle">0</text>
<path d="M233,285 L225,285 L225,265 L233,265 C233,265,243,265,243,275 C243,285,233,285,233,285 L233,285" stroke-width="1" stroke="black" stroke-linejoin="miter" fill="white" />
<text x="238" y="291" font-size="6" text-anchor="middle" font-style="italic">[herald1]</text>
<text x="233" y="278" font-size="7" text-anchor="middle">1</text>
<path d="M233,335 L225,335 L225,315 L233,315 C233,315,243,315,243,325 C243,335,233,335,233,335 L233,335" stroke-width="1" stroke="black" stroke-linejoin="miter" fill="white" />
<text x="238" y="341" font-size="6" text-anchor="middle" font-style="italic">[herald2]</text>
<text x="233" y="328" font-size="7" text-anchor="middle">0</text>
<path d="M233,385 L225,385 L225,365 L233,365 C233,365,243,365,243,375 C243,385,233,385,233,385 L233,385" stroke-width="1" stroke="black" stroke-linejoin="miter" fill="white" />
<text x="238" y="391" font-size="6" text-anchor="middle" font-style="italic">[herald3]</text>
<text x="233" y="378" font-size="7" text-anchor="middle">1</text>
<path d="M433,235 L425,235 L425,215 L433,215 C433,215,443,215,443,225 C443,235,433,235,433,235 L433,235" stroke-width="1" stroke="black" stroke-linejoin="miter" fill="white" />
<text x="438" y="241" font-size="6" text-anchor="middle" font-style="italic">[herald4]</text>
<text x="433" y="228" font-size="7" text-anchor="middle">0</text>
<path d="M433,285 L425,285 L425,265 L433,265 C433,265,443,265,443,275 C443,285,433,285,433,285 L433,285" stroke-width="1" stroke="black" stroke-linejoin="miter" fill="white" />
<text x="438" y="291" font-size="6" text-anchor="middle" font-style="italic">[herald5]</text>
<text x="433" y="278" font-size="7" text-anchor="middle">1</text>
<path d="M433,335 L425,335 L425,315 L433,315 C433,315,443,315,443,325 C443,335,433,335,433,335 L433,335" stroke-width="1" stroke="black" stroke-linejoin="miter" fill="white" />
<text x="438" y="341" font-size="6" text-anchor="middle" font-style="italic">[herald6]</text>
<text x="433" y="328" font-size="7" text-anchor="middle">0</text>
<path d="M433,385 L425,385 L425,365 L433,365 C433,365,443,365,443,375 C443,385,433,385,433,385 L433,385" stroke-width="1" stroke="black" stroke-linejoin="miter" fill="white" />
<text x="438" y="391" font-size="6" text-anchor="middle" font-style="italic">[herald7]</text>
<text x="433" y="378" font-size="7" text-anchor="middle">1</text>
</svg>