<?xml version="1.0" encoding="UTF-8"?>
<svg xmlns="http://www.w3.org/2000/svg" xmlns:xlink="http://www.w3.org/1999/xlink"
     width="775.0" height="656.25" viewBox="-25 0 620.0 525.0">
<defs>
</defs>
<path d="M10,25 L25,25" stroke-width="1" stroke="black" stroke-linejoin="miter" fill="none" />
<path d="M10,75 L25,75" stroke-width="1" stroke="black" stroke-linejoin="miter" fill="none" />
<path d="M10,125 L25,125" stroke-width="1" stroke="black" stroke-linejoin="miter" fill="none" />
<path d="M10,175 L25,175" stroke-width="1" stroke="black" stroke-linejoin="miter" fill="none" />
<path d="M37.9442,25.0002 C51.653800000000004,25.0002,51.5923,50.0,65.3019,50.0 M65.3038,50.0 C51.59219999999999,50.0,51.6538,74.9998,37.94409999999999,74.9998 M65.3038,49.99999999999999 L87.1884,49.99999999999999 M87.1884,49.99999999999999 C100.9,49.99999999999999,100.83840000000001,25.000199999999992,114.5481,25.000199999999992 M87.1884,49.99999999999999 C100.9,49.99999999999999,100.83840000000001,74.9998,114.5481,74.9998 M25.0,24.999999999999993 L38.0,24.999999999999993 M38.0019,74.9998 L25.0,74.9998 M112.6453,74.9998 L125.0,74.9998 M112.1944,24.999799999999993 L125.0,24.999799999999993" stroke-width="1" stroke="black" stroke-linejoin="miter" fill="none" />
<text x="75" y="38" font-size="7" text-anchor="middle"></text>
<path d="M97,53 L107,53 L107,63 L97,63 Z" stroke="black" fill="aquamarine" stroke-linejoin="miter" />
<text x="102" y="60" font-size="6" text-anchor="middle">H</text>
<path d="M37.9442,125.0002 C51.653800000000004,125.0002,51.5923,150.0,65.3019,150.0 M65.3038,150.0 C51.59219999999999,150.0,51.6538,174.9998,37.94409999999999,174.9998 M65.3038,150.0 L87.1884,150.0 M87.1884,150.0 C100.9,150.0,100.83840000000001,125.0002,114.5481,125.0002 M87.1884,150.0 C100.9,150.0,100.83840000000001,174.9998,114.5481,174.9998 M25.0,125.0 L38.0,125.0 M38.0019,174.9998 L25.0,174.9998 M112.6453,174.9998 L125.0,174.9998 M112.1944,124.9998 L125.0,124.9998" stroke-width="1" stroke="black" stroke-linejoin="miter" fill="none" />
<text x="75" y="138" font-size="7" text-anchor="middle">Θ=19*pi/5</text>
<path d="M97,153 L107,153 L107,163 L97,163 Z" stroke="black" fill="thistle" stroke-linejoin="miter" />
<text x="102" y="160" font-size="6" text-anchor="middle">Rx</text>
<path d="M125,25 L175,25" stroke="black" stroke-width="1" fill="none" />
<path d="M125,75 L175,75" stroke="black" stroke-width="1" fill="none" />
<path d="M125,125 L175,125" stroke="black" stroke-width="1" fill="none" />
<path d="M125,175 L175,175" stroke="black" stroke-width="1" fill="none" />
<path d="M125,225 L175,225" stroke="black" stroke-width="1" fill="none" />
<path d="M125,275 L175,275" stroke="black" stroke-width="1" fill="none" />
<path d="M125,325 L175,325" stroke="black" stroke-width="1" fill="none" />
<path d="M125,375 L175,375" stroke="black" stroke-width="1" fill="none" />
<path d="M127.5,2.5 L172.5,2.5 L172.5,397.5 L127.5,397.5 Z" stroke="black" fill="white" stroke-linejoin="miter" />
<text x="135" y="24" font-size="8" text-anchor="start" font-weight="bold"><tspan x="135" dy="0em">HERALDED</tspan><tspan x="135" dy="1em">CNOT</tspan></text>
<path d="M175,125 L195,125 M205,125 L225,125" stroke-width="1" stroke="black" stroke-linejoin="miter" fill="none" />
<path d="M190,135 L210,135 L210,115 L190,115 L190,135" stroke-width="1" stroke="black" stroke-linejoin="miter" fill="lightgray" />
<text x="200" y="144" font-size="7" text-anchor="middle">Φ=pi/3</text>
<path d="M175,25 L225,25" stroke="black" stroke-width="1" fill="none" />
<path d="M175,75 L225,75" stroke="black" stroke-width="1" fill="none" />
<path d="M175,175 L225,175" stroke="black" stroke-width="1" fill="none" />
<path d="M225,25 L275,25" stroke="black" stroke-width="1" fill="none" />
<path d="M225,75 L275,75" stroke="black" stroke-width="1" fill="none" />
<path d="M225,125 L275,125" stroke="black" stroke-width="1" fill="none" />
<path d="M225,175 L275,175" stroke="black" stroke-width="1" fill="none" />
<path d="M225,225 L275,225" stroke="black" stroke-width="1" fill="none" />
<path d="M225,275 L275,275" stroke="black" stroke-width="1" fill="none" />
<path d="M225,325 L275,325" stroke="black" stroke-width="1" fill="none" />
<path d="M225,375 L275,375" stroke="black" stroke-width="1" fill="none" />
<path d="M227.5,2.5 L272.5,2.5 L272.5,397.5 L227.5,397.5 Z" stroke="black" fill="white" stroke-linejoin="miter" />
<text x="235" y="24" font-size="8" text-anchor="start" font-weight="bold"><tspan x="235" dy="0em">HERALDED</tspan><tspan x="235" dy="1em">CNOT</tspan></text>
<path d="M275,25 L325,25" stroke="black" stroke-width="1" fill="none" />
<path d="M275,75 L325,75" stroke="black" stroke-width="1" fill="none" />
<path d="M275,125 L325,125" stroke="black" stroke-width="1" fill="none" />
<path d="M275,175 L325,175" stroke="black" stroke-width="1" fill="none" />
<path d="M337.9442,25.0002 C351.65380000000005,25.0002,351.5923,50.0,365.30190000000005,50.0 M365.3038,50.0 C351.59220000000005,50.0,351.65380000000005,74.9998,337.94410000000005,74.9998 M365.3038,49.99999999999999 L387.1884,49.99999999999999 M387.1884,49.99999999999999 C400.9,49.99999999999999,400.8384,25.000199999999992,414.5481,25.000199999999992 M387.1884,49.99999999999999 C400.9,49.99999999999999,400.8384,74.9998,414.5481,74.9998 M325.0,24.999999999999993 L338.0,24.999999999999993 M338.0019,74.9998 L325.0,74.9998 M412.6453,74.9998 L425.0,74.9998 M412.1944,24.999799999999993 L425.0,24.999799999999993" stroke-width="1" stroke="black" stroke-linejoin="miter" fill="none" />
<text x="375" y="38" font-size="7" text-anchor="middle"></text>
<path d="M397,53 L407,53 L407,63 L397,63 Z" stroke="black" fill="aquamarine" stroke-linejoin="miter" />
<text x="402" y="60" font-size="6" text-anchor="middle">H</text>
<path d="M437.9442,25.0002 C451.65380000000005,25.0002,451.5923,50.0,465.30190000000005,50.0 M465.3038,50.0 C451.59220000000005,50.0,451.65380000000005,74.9998,437.94410000000005,74.9998 M465.3038,49.99999999999999 L487.1884,49.99999999999999 M487.1884,49.99999999999999 C500.9,49.99999999999999,500.8384,25.000199999999992,514.5481,25.000199999999992 M487.1884,49.99999999999999 C500.9,49.99999999999999,500.8384,74.9998,514.5481,74.9998 M425.0,24.999999999999993 L438.0,24.999999999999993 M438.0019,74.9998 L425.0,74.9998 M512.6453,74.9998 L525.0,74.9998 M512.1944,24.999799999999993 L525.0,24.999799999999993" stroke-width="1" stroke="black" stroke-linejoin="miter" fill="none" />
<text x="475" y="38" font-size="7" text-anchor="middle">Θ=pi/3</text>
<path d="M497,53 L507,53 L507,63 L497,63 Z" stroke="black" fill="thistle" stroke-linejoin="miter" />
<text x="502" y="60" font-size="6" text-anchor="middle">Rx</text>
<path d="M325,125 L525,125" stroke="black" stroke-width="1" fill="none" />
<path d="M325,175 L525,175" stroke="black" stroke-width="1" fill="none" />
<path d="M525,25 L540,25" stroke-width="1" stroke="black" stroke-linejoin="miter" fill="none" />
<path d="M525,75 L540,75" stroke-width="1" stroke="black" stroke-linejoin="miter" fill="none" />
<path d="M525,125 L540,125" stroke-width="1" stroke="black" stroke-linejoin="miter" fill="none" />
<path d="M525,175 L540,175" stroke-width="1" stroke="black" stroke-linejoin="miter" fill="none" />
<path d="M107,225 C107,225,107,215,117,215 L125,215 L125,235 L117,235 C107,235,107,225,107,225 L107,225" stroke-width="1" stroke="black" stroke-linejoin="miter" fill="white" />
<text x="113" y="241" font-size="6" text-anchor="middle" font-style="italic">[herald0]</text>
<text x="117" y="228" font-size="7" text-anchor="middle">0</text>
<path d="M107,275 C107,275,107,265,117,265 L125,265 L125,285 L117,285 C107,285,107,275,107,275 L107,275" stroke-width="1" stroke="black" stroke-linejoin="miter" fill="white" />
<text x="113" y="291" font-size="6" text-anchor="middle" font-style="italic">[herald1]</text>
<text x="117" y="278" font-size="7" text-anchor="middle">1</text>
<path d="M107,325 C107,325,107,315,117,315 L125,315 L125,335 L117,335 C107,335,107,325,107,325 L107,325" stroke-width="1" stroke="black" stroke-linejoin="miter" fill="white" />
<text x="113" y="341" font-size="6" text-anchor="middle" font-style="italic">[herald2]</text>
<text x="117" y="328" font-size="7" text-anchor="middle">0</text>
<path d="M107,375 C107,375,107,365,117,365 L125,365 L125,385 L117,385 C107,385,107,375,107,375 L107,375" stroke-width="1" stroke="black" stroke-linejoin="miter" fill="white" />
<text x="113" y="391" font-size="6" text-anchor="middle" font-style="italic">[herald3]</text>
<text x="117" y="378" font-size="7" text-anchor="middle">1</text>
<path d="M207,225 C207,225,207,215,217,215 L225,215 L225,235 L217,235 C207,235,207,225,207,225 L207,225" stroke-width="1" stroke="black" stroke-linejoin="miter" fill="white" />
<text x="213" y="241" font-size="6" text-anchor="middle" font-style="italic">[herald4]</text>
<text x="217" y="228" font-size="7" text-anchor="middle">0</text>
<path d="M207,275 C207,275,207,265,217,265 L225,265 L225,285 L217,285 C207,285,207,275,207,275 L207,275" stroke-width="1" stroke="black" stroke-linejoin="miter" fill="white" />
<text x="213" y="291" font-size="6" text-anchor="middle" font-style="italic">[herald5]</text>
<text x="217" y="278" font-size="7" text-anchor="middle">1</text>
<path d="M207,325 C207,325,207,315,217,315 L225,315 L225,335 L217,335 C207,335,207,325,207,325 L207,325" stroke-width="1" stroke="black" stroke-linejoin="miter" fill="white" />
<text x="213" y="341" font-size="6" text-anchor="middle" font-style="italic">[herald6]</text>
<text x="217" y="328" font-size="7" text-anchor="middle">0</text>
<path d="M207,375 C207,375,207,365,217,365 L225,365 L225,385 L217,385 C207,385,207,375,207,375 L207,375" stroke-width="1" stroke="black" stroke-linejoin="miter" fill="white" />
<text x="213" y="391" font-size="6" text-anchor="middle" font-style="italic">[herald7]</text>
<text x="217" y="378" font-size="7" text-anchor="middle">1</text>
<path d="M540,15 L552,15 L552,85 L540,85 Z" stroke="black" fill="white" stroke-linejoin="miter" />
<text x="546" y="27" font-size="7" text-anchor="middle">0</text>
<text x="546" y="77" font-size="7" text-anchor="middle">1</text>
<text x="552" y="91" font-size="6" text-anchor="end" font-style="italic">[ctrl]</text>
<path d="M540,115 L552,115 L552,185 L540,185 Z" stroke="black" fill="white" stroke-linejoin="miter" />
<text x="546" y="127" font-size="7" text-anchor="middle">2</text>
<text x="546" y="177" font-size="7" text-anchor="middle">3</text>
<text x="552" y="191" font-size="6" text-anchor="end" font-style="italic">[data]</text>
<path d="M183,235 L175,235 L175,215 L183,215 C183,215,193,215,193,225 C193,235,183,235,183,235 L183,235" stroke-width="1" stroke="black" stroke-linejoin="miter" fill="white" />
<text x="188" y="241" font-size="6" text-anchor="middle" font-style="italic">[herald0]</text>
<text x="183" y="228" font-size="7" text-anchor="middle">0</text>
<path d="M183,285 L175,285 L175,265 L183,265 C183,265,193,265,193,275 C193,285,183,285,183,285 L183,285" stroke-width="1" stroke="black" stroke-linejoin="miter" fill="white" />
<text x="188" y="291" font-size="6" text-anchor="middle" font-style="italic">[herald1]</text>
<text x="183" y="278" font-size="7" text-anchor="middle">1</text>
<path d="M183,335 L175,335 L175,315 L183,315 C183,315,193,315,193,325 C193,335,183,335,183,335 L183,335" stroke-width="1" stroke="black" stroke-linejoin="miter" fill="white" />
<text x="188" y="341" font-size="6" text-anchor="middle" font-style="italic">[herald2]</text>
<text x="183" y="328" font-size="7" text-anchor="middle">0</text>
<path d="M183,385 L175,385 L175,365 L183,365 C183,365,193,365,193,375 C193,385,183,385,183,385 L183,385" stroke-width="1" stroke="black" stroke-linejoin="miter" fill="white" />
<text x="188" y="391" font-size="6" text-anchor="middle" font-style="italic">[herald3]</text>
<text x="183" y="378" font-size="7" text-anchor="middle">1</text>
<path d="M283,235 L275,235 L275,215 L283,215 C283,215,293,215,293,225 C293,235,283,235,283,235 L283,235" stroke-width="1" stroke="black" stroke-linejoin="miter" fill="white" />
<text x="288" y="241" font-size="6" text-anchor="middle" font-style="italic">[herald4]</text>
<text x="283" y="228" font-size="7" text-anchor="middle">0</text>
<path d="M283,285 L275,285 L275,265 L283,265 C283,265,293,265,293,275 C293,285,283,285,283,285 L283,285" stroke-width="1" stroke="black" stroke-linejoin="miter" fill="white" />
<text x="288" y="291" font-size="6" text-anchor="middle" font-style="italic">[herald5]</text>
<text x="283" y="278" font-size="7" text-anchor="middle">1</text>
<path d="M283,335 L275,335 L275,315 L283,315 C283,315,293,315,293,325 C293,335,283,335,283,335 L283,335" stroke-width="1" stroke="black" stroke-linejoin="miter" fill="white" />
<text x="288" y="341" font-size="6" text-anchor="middle" font-style="italic">[herald6]</text>
<text x="283" y="328" font-size="7" text-anchor="middle">0</text>
<path d="M283,385 L275,385 L275,365 L283,365 C283,365,293,365,293,375 C293,385,283,385,283,385 L283,385" stroke-width="1" stroke="black" stroke-linejoin="miter" fill="white" />
<text x="288" y="391" font-size="6" text-anchor="middle" font-style="italic">[herald7]</text>
<text x="283" y="378" font-size="7" text-anchor="middle">1</text>
</svg>