<?xml version="1.0" encoding="UTF-8"?>
<svg xmlns="http://www.w3.org/2000/svg" xmlns:xlink="http://www.w3.org/1999/xlink"
     width="1465.0" height="531.25" viewBox="-36.0 0 1172.0 425.0">
<defs>
</defs>
<path d="M10,25 L25,25" stroke-width="3" stroke="darkred" stroke-linejoin="miter" fill="none" />
<path d="M10,75 L25,75" stroke-width="3" stroke="darkred" stroke-linejoin="miter" fill="none" />
<path d="M10,125 L25,125" stroke-width="3" stroke="darkred" stroke-linejoin="miter" fill="none" />
<path d="M10,175 L25,175" stroke-width="3" stroke="darkred" stroke-linejoin="miter" fill="none" />
<path d="M27,2 L1073,2 L1073,398 L27,398 Z" stroke="black" fill="lightblue" stroke-dasharray="1,2" stroke-linejoin="miter" />
<text x="29" y="405" font-size="8" text-anchor="start">CPLX</text>
<path d="M25,25 L53,25 L72,44" stroke="darkred" stroke-width="3" fill="none" />
<path d="M78,44 L97,25 L125,25" stroke="darkred" stroke-width="3" fill="none" />
<path d="M25,75 L53,75 L72,56" stroke="darkred" stroke-width="3" fill="none" />
<path d="M78,56 L97,75 L125,75" stroke="darkred" stroke-width="3" fill="none" />
<path d="M50,43 L100,43 L100,57 L50,57 Z" stroke="black" fill="black" stroke-linejoin="miter" />
<text x="75" y="80" font-size="7" text-anchor="middle"></text>
<text x="75" y="26" font-size="7" text-anchor="middle">Θ=pi/3</text>
<path d="M50,43 L100,43 L100,47 L50,47 Z" stroke="black" fill="lightgray" stroke-linejoin="miter" />
<path d="M93,50 L103,50 L103,60 L93,60 Z" stroke="black" fill="lightsalmon" stroke-linejoin="miter" />
<text x="98" y="57" font-size="6" text-anchor="middle">Ry</text>
<path d="M125,25 L175,25" stroke="darkred" stroke-width="3" fill="none" />
<path d="M130,40 L139,40 L153,10 L144,10 L130,40 L139,40 Z" stroke="black" fill="gray" stroke-linejoin="miter" />
<text x="147" y="38" font-size="7" text-anchor="start">Φ=pi</text>
<path d="M25,125 L125,125" stroke="darkred" stroke-width="3" fill="none" />
<path d="M25,175 L125,175" stroke="darkred" stroke-width="3" fill="none" />
<path d="M128,75 L172,175" stroke="white" stroke-width="6" fill="none" />
<path d="M125,75 L128,75 L172,175 L175,175" stroke="darkred" stroke-width="3" fill="none" />
<path d="M128,125 L172,275" stroke="white" stroke-width="6" fill="none" />
<path d="M125,125 L128,125 L172,275 L175,275" stroke="darkred" stroke-width="3" fill="none" />
<path d="M128,175 L172,225" stroke="white" stroke-width="6" fill="none" />
<path d="M125,175 L128,175 L172,225 L175,225" stroke="darkred" stroke-width="3" fill="none" />
<path d="M175,225 L203,225 L222,244" stroke="darkred" stroke-width="3" fill="none" />
<path d="M228,244 L247,225 L275,225" stroke="darkred" stroke-width="3" fill="none" />
<path d="M175,275 L203,275 L222,256" stroke="darkred" stroke-width="3" fill="none" />
<path d="M228,256 L247,275 L275,275" stroke="darkred" stroke-width="3" fill="none" />
<path d="M200,243 L250,243 L250,257 L200,257 Z" stroke="black" fill="black" stroke-linejoin="miter" />
<text x="225" y="285" font-size="7" text-anchor="middle"></text>
<text x="225" y="226" font-size="7" text-anchor="middle"></text>
<path d="M200,243 L250,243 L250,247 L200,247 Z" stroke="black" fill="lightgray" stroke-linejoin="miter" />
<path d="M243,250 L253,250 L253,260 L243,260 Z" stroke="black" fill="aquamarine" stroke-linejoin="miter" />
<text x="248" y="257" font-size="6" text-anchor="middle">H</text>
<path d="M175,175 L275,175" stroke="darkred" stroke-width="3" fill="none" />
<path d="M278,175 L322,225" stroke="white" stroke-width="6" fill="none" />
<path d="M275,175 L278,175 L322,225 L325,225" stroke="darkred" stroke-width="3" fill="none" />
<path d="M278,225 L322,325" stroke="white" stroke-width="6" fill="none" />
<path d="M275,225 L278,225 L322,325 L325,325" stroke="darkred" stroke-width="3" fill="none" />
<path d="M278,275 L322,175" stroke="white" stroke-width="6" fill="none" />
<path d="M275,275 L278,275 L322,175 L325,175" stroke="darkred" stroke-width="3" fill="none" />
<path d="M325,175 L353,175 L372,194" stroke="darkred" stroke-width="3" fill="none" />
<path d="M378,194 L397,175 L425,175" stroke="darkred" stroke-width="3" fill="none" />
<path d="M325,225 L353,225 L372,206" stroke="darkred" stroke-width="3" fill="none" />
<path d="M378,206 L397,225 L425,225" stroke="darkred" stroke-width="3" fill="none" />
<path d="M350,193 L400,193 L400,207 L350,207 Z" stroke="black" fill="black" stroke-linejoin="miter" />
<text x="375" y="235" font-size="7" text-anchor="middle"></text>
<text x="375" y="176" font-size="7" text-anchor="middle"></text>
<path d="M350,193 L400,193 L400,197 L350,197 Z" stroke="black" fill="lightgray" stroke-linejoin="miter" />
<path d="M393,200 L403,200 L403,210 L393,210 Z" stroke="black" fill="aquamarine" stroke-linejoin="miter" />
<text x="398" y="207" font-size="6" text-anchor="middle">H</text>
<path d="M428,175 L472,275" stroke="white" stroke-width="6" fill="none" />
<path d="M425,175 L428,175 L472,275 L475,275" stroke="darkred" stroke-width="3" fill="none" />
<path d="M428,225 L472,175" stroke="white" stroke-width="6" fill="none" />
<path d="M425,225 L428,225 L472,175 L475,175" stroke="darkred" stroke-width="3" fill="none" />
<path d="M475,125 L503,125 L522,144" stroke="darkred" stroke-width="3" fill="none" />
<path d="M528,144 L547,125 L575,125" stroke="darkred" stroke-width="3" fill="none" />
<path d="M475,175 L503,175 L522,156" stroke="darkred" stroke-width="3" fill="none" />
<path d="M528,156 L547,175 L575,175" stroke="darkred" stroke-width="3" fill="none" />
<path d="M500,143 L550,143 L550,157 L500,157 Z" stroke="black" fill="black" stroke-linejoin="miter" />
<text x="525" y="180" font-size="7" text-anchor="middle"></text>
<text x="525" y="126" font-size="7" text-anchor="middle">Θ=2.149475</text>
<path d="M500,143 L550,143 L550,147 L500,147 Z" stroke="black" fill="lightgray" stroke-linejoin="miter" />
<path d="M543,150 L553,150 L553,160 L543,160 Z" stroke="black" fill="aquamarine" stroke-linejoin="miter" />
<text x="548" y="157" font-size="6" text-anchor="middle">H</text>
<path d="M475,225 L503,225 L522,244" stroke="darkred" stroke-width="3" fill="none" />
<path d="M528,244 L547,225 L575,225" stroke="darkred" stroke-width="3" fill="none" />
<path d="M475,275 L503,275 L522,256" stroke="darkred" stroke-width="3" fill="none" />
<path d="M528,256 L547,275 L575,275" stroke="darkred" stroke-width="3" fill="none" />
<path d="M500,243 L550,243 L550,257 L500,257 Z" stroke="black" fill="black" stroke-linejoin="miter" />
<text x="525" y="280" font-size="7" text-anchor="middle"></text>
<text x="525" y="226" font-size="7" text-anchor="middle">Θ=2.149475</text>
<path d="M500,243 L550,243 L550,247 L500,247 Z" stroke="black" fill="lightgray" stroke-linejoin="miter" />
<path d="M543,250 L553,250 L553,260 L543,260 Z" stroke="black" fill="aquamarine" stroke-linejoin="miter" />
<text x="548" y="257" font-size="6" text-anchor="middle">H</text>
<path d="M578,175 L622,225" stroke="white" stroke-width="6" fill="none" />
<path d="M575,175 L578,175 L622,225 L625,225" stroke="darkred" stroke-width="3" fill="none" />
<path d="M578,275 L622,175" stroke="white" stroke-width="6" fill="none" />
<path d="M575,275 L578,275 L622,175 L625,175" stroke="darkred" stroke-width="3" fill="none" />
<path d="M625,175 L653,175 L672,194" stroke="darkred" stroke-width="3" fill="none" />
<path d="M678,194 L697,175 L725,175" stroke="darkred" stroke-width="3" fill="none" />
<path d="M625,225 L653,225 L672,206" stroke="darkred" stroke-width="3" fill="none" />
<path d="M678,206 L697,225 L725,225" stroke="darkred" stroke-width="3" fill="none" />
<path d="M650,193 L700,193 L700,207 L650,207 Z" stroke="black" fill="black" stroke-linejoin="miter" />
<text x="675" y="235" font-size="7" text-anchor="middle"></text>
<text x="675" y="176" font-size="7" text-anchor="middle"></text>
<path d="M650,193 L700,193 L700,197 L650,197 Z" stroke="black" fill="lightgray" stroke-linejoin="miter" />
<path d="M693,200 L703,200 L703,210 L693,210 Z" stroke="black" fill="aquamarine" stroke-linejoin="miter" />
<text x="698" y="207" font-size="6" text-anchor="middle">H</text>
<path d="M325,325 L725,325" stroke="darkred" stroke-width="3" fill="none" />
<path d="M728,175 L772,225" stroke="white" stroke-width="6" fill="none" />
<path d="M725,175 L728,175 L772,225 L775,225" stroke="darkred" stroke-width="3" fill="none" />
<path d="M728,225 L772,125" stroke="white" stroke-width="6" fill="none" />
<path d="M725,225 L728,225 L772,125 L775,125" stroke="darkred" stroke-width="3" fill="none" />
<path d="M728,325 L772,325" stroke="white" stroke-width="6" fill="none" />
<path d="M725,325 L728,325 L772,325 L775,325" stroke="darkred" stroke-width="3" fill="none" />
<path d="M775,125 L803,125 L822,144" stroke="darkred" stroke-width="3" fill="none" />
<path d="M828,144 L847,125 L875,125" stroke="darkred" stroke-width="3" fill="none" />
<path d="M775,175 L803,175 L822,156" stroke="darkred" stroke-width="3" fill="none" />
<path d="M828,156 L847,175 L875,175" stroke="darkred" stroke-width="3" fill="none" />
<path d="M800,143 L850,143 L850,157 L800,157 Z" stroke="black" fill="black" stroke-linejoin="miter" />
<text x="825" y="180" font-size="7" text-anchor="middle"></text>
<text x="825" y="126" font-size="7" text-anchor="middle">Θ=1.030117</text>
<path d="M800,143 L850,143 L850,147 L800,147 Z" stroke="black" fill="lightgray" stroke-linejoin="miter" />
<path d="M843,150 L853,150 L853,160 L843,160 Z" stroke="black" fill="aquamarine" stroke-linejoin="miter" />
<text x="848" y="157" font-size="6" text-anchor="middle">H</text>
<path d="M878,125 L922,175" stroke="white" stroke-width="6" fill="none" />
<path d="M875,125 L878,125 L922,175 L925,175" stroke="darkred" stroke-width="3" fill="none" />
<path d="M775,225 L803,225 L822,244" stroke="darkred" stroke-width="3" fill="none" />
<path d="M828,244 L847,225 L875,225" stroke="darkred" stroke-width="3" fill="none" />
<path d="M775,275 L803,275 L822,256" stroke="darkred" stroke-width="3" fill="none" />
<path d="M828,256 L847,275 L875,275" stroke="darkred" stroke-width="3" fill="none" />
<path d="M800,243 L850,243 L850,257 L800,257 Z" stroke="black" fill="black" stroke-linejoin="miter" />
<text x="825" y="280" font-size="7" text-anchor="middle"></text>
<text x="825" y="226" font-size="7" text-anchor="middle">Θ=1.030117</text>
<path d="M800,243 L850,243 L850,247 L800,247 Z" stroke="black" fill="lightgray" stroke-linejoin="miter" />
<path d="M843,250 L853,250 L853,260 L843,260 Z" stroke="black" fill="aquamarine" stroke-linejoin="miter" />
<text x="848" y="257" font-size="6" text-anchor="middle">H</text>
<path d="M775,325 L875,325" stroke="darkred" stroke-width="3" fill="none" />
<path d="M878,225 L922,275" stroke="white" stroke-width="6" fill="none" />
<path d="M875,225 L878,225 L922,275 L925,275" stroke="darkred" stroke-width="3" fill="none" />
<path d="M878,325 L922,225" stroke="white" stroke-width="6" fill="none" />
<path d="M875,325 L878,325 L922,225 L925,225" stroke="darkred" stroke-width="3" fill="none" />
<path d="M925,225 L953,225 L972,244" stroke="darkred" stroke-width="3" fill="none" />
<path d="M978,244 L997,225 L1025,225" stroke="darkred" stroke-width="3" fill="none" />
<path d="M925,275 L953,275 L972,256" stroke="darkred" stroke-width="3" fill="none" />
<path d="M978,256 L997,275 L1025,275" stroke="darkred" stroke-width="3" fill="none" />
<path d="M950,243 L1000,243 L1000,257 L950,257 Z" stroke="black" fill="black" stroke-linejoin="miter" />
<text x="975" y="285" font-size="7" text-anchor="middle"></text>
<text x="975" y="226" font-size="7" text-anchor="middle"></text>
<path d="M950,243 L1000,243 L1000,247 L950,247 Z" stroke="black" fill="lightgray" stroke-linejoin="miter" />
<path d="M993,250 L1003,250 L1003,260 L993,260 Z" stroke="black" fill="aquamarine" stroke-linejoin="miter" />
<text x="998" y="257" font-size="6" text-anchor="middle">H</text>
<path d="M925,175 L1025,175" stroke="darkred" stroke-width="3" fill="none" />
<path d="M1028,175 L1072,75" stroke="white" stroke-width="6" fill="none" />
<path d="M1025,175 L1028,175 L1072,75 L1075,75" stroke="darkred" stroke-width="3" fill="none" />
<path d="M1028,225 L1072,175" stroke="white" stroke-width="6" fill="none" />
<path d="M1025,225 L1028,225 L1072,175 L1075,175" stroke="darkred" stroke-width="3" fill="none" />
<path d="M1028,275 L1072,125" stroke="white" stroke-width="6" fill="none" />
<path d="M1025,275 L1028,275 L1072,125 L1075,125" stroke="darkred" stroke-width="3" fill="none" />
<path d="M175,25 L1075,25" stroke="darkred" stroke-width="3" fill="none" />
<path d="M1075,25 L1090,25" stroke-width="3" stroke="darkred" stroke-linejoin="miter" fill="none" />
<path d="M1075,75 L1090,75" stroke-width="3" stroke="darkred" stroke-linejoin="miter" fill="none" />
<path d="M1075,125 L1090,125" stroke-width="3" stroke="darkred" stroke-linejoin="miter" fill="none" />
<path d="M1075,175 L1090,175" stroke-width="3" stroke="darkred" stroke-linejoin="miter" fill="none" />
<path d="M757,175 C757,175,757,165,767,165 L775,165 L775,185 L767,185 C757,185,757,175,757,175 L757,175" stroke-width="1" stroke="black" stroke-linejoin="miter" fill="white" />
<text x="763" y="191" font-size="6" text-anchor="middle" font-style="italic">[herald0]</text>
<text x="767" y="178" font-size="7" text-anchor="middle">0</text>
<path d="M457,125 C457,125,457,115,467,115 L475,115 L475,135 L467,135 C457,135,457,125,457,125 L457,125" stroke-width="1" stroke="black" stroke-linejoin="miter" fill="white" />
<text x="463" y="141" font-size="6" text-anchor="middle" font-style="italic">[herald1]</text>
<text x="467" y="128" font-size="7" text-anchor="middle">1</text>
<path d="M757,275 C757,275,757,265,767,265 L775,265 L775,285 L767,285 C757,285,757,275,757,275 L757,275" stroke-width="1" stroke="black" stroke-linejoin="miter" fill="white" />
<text x="763" y="291" font-size="6" text-anchor="middle" font-style="italic">[herald2]</text>
<text x="767" y="278" font-size="7" text-anchor="middle">0</text>
<path d="M457,225 C457,225,457,215,467,215 L475,215 L475,235 L467,235 C457,235,457,225,457,225 L457,225" stroke-width="1" stroke="black" stroke-linejoin="miter" fill="white" />
<text x="463" y="241" font-size="6" text-anchor="middle" font-style="italic">[herald3]</text>
<text x="467" y="228" font-size="7" text-anchor="middle">1</text>
<path d="M-2,15 L10,15 L10,85 L-2,85 Z" stroke="black" fill="lightgray" stroke-linejoin="miter" />
<text x="4" y="27" font-size="7" text-anchor="middle">0</text>
<text x="4" y="77" font-size="7" text-anchor="middle">1</text>
<text x="-2" y="91" font-size="6" text-anchor="start" font-style="italic">[0]</text>
<path d="M-2,115 L10,115 L10,185 L-2,185 Z" stroke="black" fill="lightgray" stroke-linejoin="miter" />
<text x="4" y="127" font-size="7" text-anchor="middle">2</text>
<text x="4" y="177" font-size="7" text-anchor="middle">3</text>
<text x="-2" y="191" font-size="6" text-anchor="start" font-style="italic">[1]</text>
<path d="M883,185 L875,185 L875,165 L883,165 C883,165,893,165,893,175 C893,185,883,185,883,185 L883,185" stroke-width="1" stroke="black" stroke-linejoin="miter" fill="white" />
<text x="888" y="191" font-size="6" text-anchor="middle" font-style="italic">[herald0]</text>
<text x="883" y="178" font-size="7" text-anchor="middle">0</text>
<path d="M583,135 L575,135 L575,115 L583,115 C583,115,593,115,593,125 C593,135,583,135,583,135 L583,135" stroke-width="1" stroke="black" stroke-linejoin="miter" fill="white" />
<text x="588" y="141" font-size="6" text-anchor="middle" font-style="italic">[herald1]</text>
<text x="583" y="128" font-size="7" text-anchor="middle">1</text>
<path d="M883,285 L875,285 L875,265 L883,265 C883,265,893,265,893,275 C893,285,883,285,883,285 L883,285" stroke-width="1" stroke="black" stroke-linejoin="miter" fill="white" />
<text x="888" y="291" font-size="6" text-anchor="middle" font-style="italic">[herald2]</text>
<text x="883" y="278" font-size="7" text-anchor="middle">0</text>
<path d="M583,235 L575,235 L575,215 L583,215 C583,215,593,215,593,225 C593,235,583,235,583,235 L583,235" stroke-width="1" stroke="black" stroke-linejoin="miter" fill="white" />
<text x="588" y="241" font-size="6" text-anchor="middle" font-style="italic">[herald3]</text>
<text x="583" y="228" font-size="7" text-anchor="middle">1</text>
<path d="M1090,15 L1102,15 L1102,85 L1090,85 Z" stroke="black" fill="lightgray" stroke-linejoin="miter" />
<text x="1096" y="27" font-size="7" text-anchor="middle">0</text>
<text x="1096" y="77" font-size="7" text-anchor="middle">1</text>
<text x="1102" y="91" font-size="6" text-anchor="end" font-style="italic">[0]</text>
<path d="M1090,115 L1102,115 L1102,185 L1090,185 Z" stroke="black" fill="lightgray" stroke-linejoin="miter" />
<text x="1096" y="127" font-size="7" text-anchor="middle">2</text>
<text x="1096" y="177" font-size="7" text-anchor="middle">3</text>
<text x="1102" y="191" font-size="6" text-anchor="end" font-style="italic">[1]</text>
</svg>