<?xml version="1.0" encoding="UTF-8"?>
<svg xmlns="http://www.w3.org/2000/svg" xmlns:xlink="http://www.w3.org/1999/xlink"
     width="257.5" height="156.25" viewBox="-28.0 0 206.0 125.0">
<defs>
</defs>
<path d="M10,25 L25,25" stroke-width="3" stroke="darkred" stroke-linejoin="miter" fill="none" />
<path d="M10,75 L25,75" stroke-width="3" stroke="darkred" stroke-linejoin="miter" fill="none" />
<path d="M28,25 L72,75" stroke="white" stroke-width="6" fill="none" />
<path d="M25,25 L28,25 L72,75 L75,75" stroke="darkred" stroke-width="3" fill="none" />
<path d="M28,75 L72,25" stroke="white" stroke-width="6" fill="none" />
<path d="M25,75 L28,75 L72,25 L75,25" stroke="darkred" stroke-width="3" fill="none" />
<path d="M78,25 L122,75" stroke="white" stroke-width="6" fill="none" />
<path d="M75,25 L78,25 L122,75 L125,75" stroke="darkred" stroke-width="3" fill="none" />
<path d="M78,75 L122,25" stroke="white" stroke-width="6" fill="none" />
<path d="M75,75 L78,75 L122,25 L125,25" stroke="darkred" stroke-width="3" fill="none" />
<path d="M125,25 L140,25" stroke-width="3" stroke="darkred" stroke-linejoin="miter" fill="none" />
<path d="M125,75 L140,75" stroke-width="3" stroke="darkred" stroke-linejoin="miter" fill="none" />
<text x="150" y="28" font-size="6" text-anchor="end">0</text>
<text x="150" y="78" font-size="6" text-anchor="end">1</text>
<text x="0" y="28" font-size="6" text-anchor="start">0</text>
<text x="0" y="78" font-size="6" text-anchor="start">1</text>
</svg>