<?xml version="1.0" encoding="UTF-8"?>
<svg xmlns="http://www.w3.org/2000/svg" xmlns:xlink="http://www.w3.org/1999/xlink"
     width="775.0" height="656.25" viewBox="-25 0 620.0 525.0">
<defs>
</defs>
<path d="M10,25 L25,25" stroke-width="3" stroke="darkred" stroke-linejoin="miter" fill="none" />
<path d="M10,75 L25,75" stroke-width="3" stroke="darkred" stroke-linejoin="miter" fill="none" />
<path d="M10,125 L25,125" stroke-width="3" stroke="darkred" stroke-linejoin="miter" fill="none" />
<path d="M10,175 L25,175" stroke-width="3" stroke="darkred" stroke-linejoin="miter" fill="none" />
<path d="M25,25 L53,25 L72,44" stroke="darkred" stroke-width="3" fill="none" />
<path d="M78,44 L97,25 L125,25" stroke="darkred" stroke-width="3" fill="none" />
<path d="M25,75 L53,75 L72,56" stroke="darkred" stroke-width="3" fill="none" />
<path d="M78,56 L97,75 L125,75" stroke="darkred" stroke-width="3" fill="none" />
<path d="M50,43 L100,43 L100,57 L50,57 Z" stroke="black" fill="black" stroke-linejoin="miter" />
<text x="75" y="85" font-size="7" text-anchor="middle"></text>
<text x="75" y="26" font-size="7" text-anchor="middle"></text>
<path d="M50,43 L100,43 L100,47 L50,47 Z" stroke="black" fill="lightgray" stroke-linejoin="miter" />
<path d="M93,50 L103,50 L103,60 L93,60 Z" stroke="black" fill="aquamarine" stroke-linejoin="miter" />
<text x="98" y="57" font-size="6" text-anchor="middle">H</text>
<path d="M25,125 L125,125" stroke="darkred" stroke-width="3" fill="none" />
<path d="M25,175 L125,175" stroke="darkred" stroke-width="3" fill="none" />
<path d="M125,25 L225,25" stroke="darkred" stroke-width="3" fill="none" />
<path d="M125,75 L225,75" stroke="darkred" stroke-width="3" fill="none" />
<path d="M125,125 L225,125" stroke="darkred" stroke-width="3" fill="none" />
<path d="M125,175 L225,175" stroke="darkred" stroke-width="3" fill="none" />
<path d="M125,225 L225,225" stroke="darkred" stroke-width="3" fill="none" />
<path d="M125,275 L225,275" stroke="darkred" stroke-width="3" fill="none" />
<path d="M125,325 L225,325" stroke="darkred" stroke-width="3" fill="none" />
<path d="M125,375 L225,375" stroke="darkred" stroke-width="3" fill="none" />
<path d="M127.5,2.5 L222.5,2.5 L222.5,397.5 L127.5,397.5 Z" stroke="darkred" fill="lightpink" stroke-linejoin="miter" />
<text x="135" y="24" font-size="8" text-anchor="start" font-weight="bold"><tspan x="135" dy="0em">HERALDED</tspan><tspan x="135" dy="1em">CNOT</tspan></text>
<path d="M225,25 L275,25" stroke="darkred" stroke-width="3" fill="none" />
<path d="M225,75 L275,75" stroke="darkred" stroke-width="3" fill="none" />
<path d="M225,125 L275,125" stroke="darkred" stroke-width="3" fill="none" />
<path d="M225,175 L275,175" stroke="darkred" stroke-width="3" fill="none" />
<path d="M275,25 L375,25" stroke="darkred" stroke-width="3" fill="none" />
<path d="M275,75 L375,75" stroke="darkred" stroke-width="3" fill="none" />
<path d="M275,125 L375,125" stroke="darkred" stroke-width="3" fill="none" />
<path d="M275,175 L375,175" stroke="darkred" stroke-width="3" fill="none" />
<path d="M275,225 L375,225" stroke="darkred" stroke-width="3" fill="none" />
<path d="M275,275 L375,275" stroke="darkred" stroke-width="3" fill="none" />
<path d="M275,325 L375,325" stroke="darkred" stroke-width="3" fill="none" />
<path d="M275,375 L375,375" stroke="darkred" stroke-width="3" fill="none" />
<path d="M277.5,2.5 L372.5,2.5 L372.5,397.5 L277.5,397.5 Z" stroke="darkred" fill="lightpink" stroke-linejoin="miter" />
<text x="285" y="24" font-size="8" text-anchor="start" font-weight="bold"><tspan x="285" dy="0em">HERALDED</tspan><tspan x="285" dy="1em">CNOT</tspan></text>
<path d="M375,25 L425,25" stroke="darkred" stroke-width="3" fill="none" />
<path d="M375,75 L425,75" stroke="darkred" stroke-width="3" fill="none" />
<path d="M375,125 L425,125" stroke="darkred" stroke-width="3" fill="none" />
<path d="M375,175 L425,175" stroke="darkred" stroke-width="3" fill="none" />
<path d="M425,25 L453,25 L472,44" stroke="darkred" stroke-width="3" fill="none" />
<path d="M478,44 L497,25 L525,25" stroke="darkred" stroke-width="3" fill="none" />
<path d="M425,75 L453,75 L472,56" stroke="darkred" stroke-width="3" fill="none" />
<path d="M478,56 L497,75 L525,75" stroke="darkred" stroke-width="3" fill="none" />
<path d="M450,43 L500,43 L500,57 L450,57 Z" stroke="black" fill="black" stroke-linejoin="miter" />
<text x="475" y="85" font-size="7" text-anchor="middle"></text>
<text x="475" y="26" font-size="7" text-anchor="middle"></text>
<path d="M450,43 L500,43 L500,47 L450,47 Z" stroke="black" fill="lightgray" stroke-linejoin="miter" />
<path d="M493,50 L503,50 L503,60 L493,60 Z" stroke="black" fill="aquamarine" stroke-linejoin="miter" />
<text x="498" y="57" font-size="6" text-anchor="middle">H</text>
<path d="M425,125 L525,125" stroke="darkred" stroke-width="3" fill="none" />
<path d="M425,175 L525,175" stroke="darkred" stroke-width="3" fill="none" />
<path d="M525,25 L540,25" stroke-width="3" stroke="darkred" stroke-linejoin="miter" fill="none" />
<path d="M525,75 L540,75" stroke-width="3" stroke="darkred" stroke-linejoin="miter" fill="none" />
<path d="M525,125 L540,125" stroke-width="3" stroke="darkred" stroke-linejoin="miter" fill="none" />
<path d="M525,175 L540,175" stroke-width="3" stroke="darkred" stroke-linejoin="miter" fill="none" />
<path d="M107,225 C107,225,107,215,117,215 L125,215 L125,235 L117,235 C107,235,107,225,107,225 L107,225" stroke-width="1" stroke="black" stroke-linejoin="miter" fill="white" />
<text x="113" y="241" font-size="6" text-anchor="middle" font-style="italic">[herald0]</text>
<text x="117" y="228" font-size="7" text-anchor="middle">0</text>
<path d="M107,275 C107,275,107,265,117,265 L125,265 L125,285 L117,285 C107,285,107,275,107,275 L107,275" stroke-width="1" stroke="black" stroke-linejoin="miter" fill="white" />
<text x="113" y="291" font-size="6" text-anchor="middle" font-style="italic">[herald1]</text>
<text x="117" y="278" font-size="7" text-anchor="middle">1</text>
<path d="M107,325 C107,325,107,315,117,315 L125,315 L125,335 L117,335 C107,335,107,325,107,325 L107,325" stroke-width="1" stroke="black" stroke-linejoin="miter" fill="white" />
<text x="113" y="341" font-size="6" text-anchor="middle" font-style="italic">[herald2]</text>
<text x="117" y="328" font-size="7" text-anchor="middle">0</text>
<path d="M107,375 C107,375,107,365,117,365 L125,365 L125,385 L117,385 C107,385,107,375,107,375 L107,375" stroke-width="1" stroke="black" stroke-linejoin="miter" fill="white" />
<text x="113" y="391" font-size="6" text-anchor="middle" font-style="italic">[herald3]</text>
<text x="117" y="378" font-size="7" text-anchor="middle">1</text>
<path d="M257,225 C257,225,257,215,267,215 L275,215 L275,235 L267,235 C257,235,257,225,257,225 L257,225" stroke-width="1" stroke="black" stroke-linejoin="miter" fill="white" />
<text x="263" y="241" font-size="6" text-anchor="middle" font-style="italic">[herald4]</text>
<text x="267" y="228" font-size="7" text-anchor="middle">0</text>
<path d="M257,275 C257,275,257,265,267,265 L275,265 L275,285 L267,285 C257,285,257,275,257,275 L257,275" stroke-width="1" stroke="black" stroke-linejoin="miter" fill="white" />
<text x="263" y="291" font-size="6" text-anchor="middle" font-style="italic">[herald5]</text>
<text x="267" y="278" font-size="7" text-anchor="middle">1</text>
<path d="M257,325 C257,325,257,315,267,315 L275,315 L275,335 L267,335 C257,335,257,325,257,325 L257,325" stroke-width="1" stroke="black" stroke-linejoin="miter" fill="white" />
<text x="263" y="341" font-size="6" text-anchor="middle" font-style="italic">[herald6]</text>
<text x="267" y="328" font-size="7" text-anchor="middle">0</text>
<path d="M257,375 C257,375,257,365,267,365 L275,365 L275,385 L267,385 C257,385,257,375,257,375 L257,375" stroke-width="1" stroke="black" stroke-linejoin="miter" fill="white" />
<text x="263" y="391" font-size="6" text-anchor="middle" font-style="italic">[herald7]</text>
<text x="267" y="378" font-size="7" text-anchor="middle">1</text>
<path d="M540,15 L552,15 L552,85 L540,85 Z" stroke="black" fill="lightgray" stroke-linejoin="miter" />
<text x="546" y="27" font-size="7" text-anchor="middle">0</text>
<text x="546" y="77" font-size="7" text-anchor="middle">1</text>
<text x="552" y="91" font-size="6" text-anchor="end" font-style="italic">[ctrl]</text>
<path d="M540,115 L552,115 L552,185 L540,185 Z" stroke="black" fill="lightgray" stroke-linejoin="miter" />
<text x="546" y="127" font-size="7" text-anchor="middle">2</text>
<text x="546" y="177" font-size="7" text-anchor="middle">3</text>
<text x="552" y="191" font-size="6" text-anchor="end" font-style="italic">[data]</text>
<path d="M233,235 L225,235 L225,215 L233,215 C233,215,243,215,243,225 C243,235,233,235,233,235 L233,235" stroke-width="1" stroke="black" stroke-linejoin="miter" fill="white" />
<text x="238" y="241" font-size="6" text-anchor="middle" font-style="italic">[herald0]</text>
<text x="233" y="228" font-size="7" text-anchor="middle">0</text>
<path d="M233,285 L225,285 L225,265 L233,265 C233,265,243,265,243,275 C243,285,233,285,233,285 L233,285" stroke-width="1" stroke="black" stroke-linejoin="miter" fill="white" />
<text x="238" y="291" font-size="6" text-anchor="middle" font-style="italic">[herald1]</text>
<text x="233" y="278" font-size="7" text-anchor="middle">1</text>
<path d="M233,335 L225,335 L225,315 L233,315 C233,315,243,315,243,325 C243,335,233,335,233,335 L233,335" stroke-width="1" stroke="black" stroke-linejoin="miter" fill="white" />
<text x="238" y="341" font-size="6" text-anchor="middle" font-style="italic">[herald2]</text>
<text x="233" y="328" font-size="7" text-anchor="middle">0</text>
<path d="M233,385 L225,385 L225,365 L233,365 C233,365,243,365,243,375 C243,385,233,385,233,385 L233,385" stroke-width="1" stroke="black" stroke-linejoin="miter" fill="white" />
<text x="238" y="391" font-size="6" text-anchor="middle" font-style="italic">[herald3]</text>
<text x="233" y="378" font-size="7" text-anchor="middle">1</text>
<path d="M383,235 L375,235 L375,215 L383,215 C383,215,393,215,393,225 C393,235,383,235,383,235 L383,235" stroke-width="1" stroke="black" stroke-linejoin="miter" fill="white" />
<text x="388" y="241" font-size="6" text-anchor="middle" font-style="italic">[herald4]</text>
<text x="383" y="228" font-size="7" text-anchor="middle">0</text>
<path d="M383,285 L375,285 L375,265 L383,265 C383,265,393,265,393,275 C393,285,383,285,383,285 L383,285" stroke-width="1" stroke="black" stroke-linejoin="miter" fill="white" />
<text x="388" y="291" font-size="6" text-anchor="middle" font-style="italic">[herald5]</text>
<text x="383" y="278" font-size="7" text-anchor="middle">1</text>
<path d="M383,335 L375,335 L375,315 L383,315 C383,315,393,315,393,325 C393,335,383,335,383,335 L383,335" stroke-width="1" stroke="black" stroke-linejoin="miter" fill="white" />
<text x="388" y="341" font-size="6" text-anchor="middle" font-style="italic">[herald6]</text>
<text x="383" y="328" font-size="7" text-anchor="middle">0</text>
<path d="M383,385 L375,385 L375,365 L383,365 C383,365,393,365,393,375 C393,385,383,385,383,385 L383,385" stroke-width="1" stroke="black" stroke-linejoin="miter" fill="white" />
<text x="388" y="391" font-size="6" text-anchor="middle" font-style="italic">[herald7]</text>
<text x="383" y="378" font-size="7" text-anchor="middle">1</text>
</svg>