<?xml version="1.0" encoding="UTF-8"?>
<svg xmlns="http://www.w3.org/2000/svg" xmlns:xlink="http://www.w3.org/1999/xlink"
     width="1323.75" height="531.25" viewBox="-29.5 0 1059.0 425.0">
<defs>
</defs>
<path d="M10,25 L25,25" stroke-width="3" stroke="darkred" stroke-linejoin="miter" fill="none" />
<path d="M10,75 L25,75" stroke-width="3" stroke="darkred" stroke-linejoin="miter" fill="none" />
<path d="M10,125 L25,125" stroke-width="3" stroke="darkred" stroke-linejoin="miter" fill="none" />
<path d="M10,175 L25,175" stroke-width="3" stroke="darkred" stroke-linejoin="miter" fill="none" />
<path d="M10,225 L25,225" stroke-width="3" stroke="darkred" stroke-linejoin="miter" fill="none" />
<path d="M10,275 L25,275" stroke-width="3" stroke="darkred" stroke-linejoin="miter" fill="none" />
<path d="M10,325 L25,325" stroke-width="3" stroke="darkred" stroke-linejoin="miter" fill="none" />
<path d="M10,375 L25,375" stroke-width="3" stroke="darkred" stroke-linejoin="miter" fill="none" />
<path d="M28,75 L72,175" stroke="white" stroke-width="6" fill="none" />
<path d="M25,75 L28,75 L72,175 L75,175" stroke="darkred" stroke-width="3" fill="none" />
<path d="M28,125 L72,275" stroke="white" stroke-width="6" fill="none" />
<path d="M25,125 L28,125 L72,275 L75,275" stroke="darkred" stroke-width="3" fill="none" />
<path d="M28,175 L72,225" stroke="white" stroke-width="6" fill="none" />
<path d="M25,175 L28,175 L72,225 L75,225" stroke="darkred" stroke-width="3" fill="none" />
<path d="M28,225 L72,75" stroke="white" stroke-width="6" fill="none" />
<path d="M25,225 L28,225 L72,75 L75,75" stroke="darkred" stroke-width="3" fill="none" />
<path d="M28,275 L72,125" stroke="white" stroke-width="6" fill="none" />
<path d="M25,275 L28,275 L72,125 L75,125" stroke="darkred" stroke-width="3" fill="none" />
<path d="M75,225 L103,225 L122,244" stroke="darkred" stroke-width="3" fill="none" />
<path d="M128,244 L147,225 L175,225" stroke="darkred" stroke-width="3" fill="none" />
<path d="M75,275 L103,275 L122,256" stroke="darkred" stroke-width="3" fill="none" />
<path d="M128,256 L147,275 L175,275" stroke="darkred" stroke-width="3" fill="none" />
<path d="M100,243 L150,243 L150,257 L100,257 Z" stroke="black" fill="black" stroke-linejoin="miter" />
<text x="125" y="285" font-size="7" text-anchor="middle"></text>
<text x="125" y="226" font-size="7" text-anchor="middle"></text>
<path d="M100,243 L150,243 L150,247 L100,247 Z" stroke="black" fill="lightgray" stroke-linejoin="miter" />
<path d="M143,250 L153,250 L153,260 L143,260 Z" stroke="black" fill="aquamarine" stroke-linejoin="miter" />
<text x="148" y="257" font-size="6" text-anchor="middle">H</text>
<path d="M75,175 L175,175" stroke="darkred" stroke-width="3" fill="none" />
<path d="M25,325 L175,325" stroke="darkred" stroke-width="3" fill="none" />
<path d="M25,375 L175,375" stroke="darkred" stroke-width="3" fill="none" />
<path d="M178,175 L222,225" stroke="white" stroke-width="6" fill="none" />
<path d="M175,175 L178,175 L222,225 L225,225" stroke="darkred" stroke-width="3" fill="none" />
<path d="M178,225 L222,325" stroke="white" stroke-width="6" fill="none" />
<path d="M175,225 L178,225 L222,325 L225,325" stroke="darkred" stroke-width="3" fill="none" />
<path d="M178,275 L222,175" stroke="white" stroke-width="6" fill="none" />
<path d="M175,275 L178,275 L222,175 L225,175" stroke="darkred" stroke-width="3" fill="none" />
<path d="M178,325 L222,375" stroke="white" stroke-width="6" fill="none" />
<path d="M175,325 L178,325 L222,375 L225,375" stroke="darkred" stroke-width="3" fill="none" />
<path d="M178,375 L222,275" stroke="white" stroke-width="6" fill="none" />
<path d="M175,375 L178,375 L222,275 L225,275" stroke="darkred" stroke-width="3" fill="none" />
<path d="M225,175 L253,175 L272,194" stroke="darkred" stroke-width="3" fill="none" />
<path d="M278,194 L297,175 L325,175" stroke="darkred" stroke-width="3" fill="none" />
<path d="M225,225 L253,225 L272,206" stroke="darkred" stroke-width="3" fill="none" />
<path d="M278,206 L297,225 L325,225" stroke="darkred" stroke-width="3" fill="none" />
<path d="M250,193 L300,193 L300,207 L250,207 Z" stroke="black" fill="black" stroke-linejoin="miter" />
<text x="275" y="235" font-size="7" text-anchor="middle"></text>
<text x="275" y="176" font-size="7" text-anchor="middle"></text>
<path d="M250,193 L300,193 L300,197 L250,197 Z" stroke="black" fill="lightgray" stroke-linejoin="miter" />
<path d="M293,200 L303,200 L303,210 L293,210 Z" stroke="black" fill="aquamarine" stroke-linejoin="miter" />
<text x="298" y="207" font-size="6" text-anchor="middle">H</text>
<path d="M225,275 L325,275" stroke="darkred" stroke-width="3" fill="none" />
<path d="M328,175 L372,275" stroke="white" stroke-width="6" fill="none" />
<path d="M325,175 L328,175 L372,275 L375,275" stroke="darkred" stroke-width="3" fill="none" />
<path d="M328,225 L372,175" stroke="white" stroke-width="6" fill="none" />
<path d="M325,225 L328,225 L372,175 L375,175" stroke="darkred" stroke-width="3" fill="none" />
<path d="M328,275 L372,225" stroke="white" stroke-width="6" fill="none" />
<path d="M325,275 L328,275 L372,225 L375,225" stroke="darkred" stroke-width="3" fill="none" />
<path d="M75,125 L375,125" stroke="darkred" stroke-width="3" fill="none" />
<path d="M375,125 L403,125 L422,144" stroke="darkred" stroke-width="3" fill="none" />
<path d="M428,144 L447,125 L475,125" stroke="darkred" stroke-width="3" fill="none" />
<path d="M375,175 L403,175 L422,156" stroke="darkred" stroke-width="3" fill="none" />
<path d="M428,156 L447,175 L475,175" stroke="darkred" stroke-width="3" fill="none" />
<path d="M400,143 L450,143 L450,157 L400,157 Z" stroke="black" fill="black" stroke-linejoin="miter" />
<text x="425" y="180" font-size="7" text-anchor="middle"></text>
<text x="425" y="126" font-size="7" text-anchor="middle">Θ=2.149475</text>
<path d="M400,143 L450,143 L450,147 L400,147 Z" stroke="black" fill="lightgray" stroke-linejoin="miter" />
<path d="M443,150 L453,150 L453,160 L443,160 Z" stroke="black" fill="aquamarine" stroke-linejoin="miter" />
<text x="448" y="157" font-size="6" text-anchor="middle">H</text>
<path d="M375,225 L403,225 L422,244" stroke="darkred" stroke-width="3" fill="none" />
<path d="M428,244 L447,225 L475,225" stroke="darkred" stroke-width="3" fill="none" />
<path d="M375,275 L403,275 L422,256" stroke="darkred" stroke-width="3" fill="none" />
<path d="M428,256 L447,275 L475,275" stroke="darkred" stroke-width="3" fill="none" />
<path d="M400,243 L450,243 L450,257 L400,257 Z" stroke="black" fill="black" stroke-linejoin="miter" />
<text x="425" y="280" font-size="7" text-anchor="middle"></text>
<text x="425" y="226" font-size="7" text-anchor="middle">Θ=2.149475</text>
<path d="M400,243 L450,243 L450,247 L400,247 Z" stroke="black" fill="lightgray" stroke-linejoin="miter" />
<path d="M443,250 L453,250 L453,260 L443,260 Z" stroke="black" fill="aquamarine" stroke-linejoin="miter" />
<text x="448" y="257" font-size="6" text-anchor="middle">H</text>
<path d="M478,175 L522,225" stroke="white" stroke-width="6" fill="none" />
<path d="M475,175 L478,175 L522,225 L525,225" stroke="darkred" stroke-width="3" fill="none" />
<path d="M478,225 L522,275" stroke="white" stroke-width="6" fill="none" />
<path d="M475,225 L478,225 L522,275 L525,275" stroke="darkred" stroke-width="3" fill="none" />
<path d="M478,275 L522,175" stroke="white" stroke-width="6" fill="none" />
<path d="M475,275 L478,275 L522,175 L525,175" stroke="darkred" stroke-width="3" fill="none" />
<path d="M525,175 L553,175 L572,194" stroke="darkred" stroke-width="3" fill="none" />
<path d="M578,194 L597,175 L625,175" stroke="darkred" stroke-width="3" fill="none" />
<path d="M525,225 L553,225 L572,206" stroke="darkred" stroke-width="3" fill="none" />
<path d="M578,206 L597,225 L625,225" stroke="darkred" stroke-width="3" fill="none" />
<path d="M550,193 L600,193 L600,207 L550,207 Z" stroke="black" fill="black" stroke-linejoin="miter" />
<text x="575" y="235" font-size="7" text-anchor="middle"></text>
<text x="575" y="176" font-size="7" text-anchor="middle"></text>
<path d="M550,193 L600,193 L600,197 L550,197 Z" stroke="black" fill="lightgray" stroke-linejoin="miter" />
<path d="M593,200 L603,200 L603,210 L593,210 Z" stroke="black" fill="aquamarine" stroke-linejoin="miter" />
<text x="598" y="207" font-size="6" text-anchor="middle">H</text>
<path d="M75,75 L625,75" stroke="darkred" stroke-width="3" fill="none" />
<path d="M475,125 L625,125" stroke="darkred" stroke-width="3" fill="none" />
<path d="M525,275 L625,275" stroke="darkred" stroke-width="3" fill="none" />
<path d="M225,325 L625,325" stroke="darkred" stroke-width="3" fill="none" />
<path d="M225,375 L625,375" stroke="darkred" stroke-width="3" fill="none" />
<path d="M628,75 L672,175" stroke="white" stroke-width="6" fill="none" />
<path d="M625,75 L628,75 L672,175 L675,175" stroke="darkred" stroke-width="3" fill="none" />
<path d="M628,125 L672,75" stroke="white" stroke-width="6" fill="none" />
<path d="M625,125 L628,125 L672,75 L675,75" stroke="darkred" stroke-width="3" fill="none" />
<path d="M628,175 L672,225" stroke="white" stroke-width="6" fill="none" />
<path d="M625,175 L628,175 L672,225 L675,225" stroke="darkred" stroke-width="3" fill="none" />
<path d="M628,225 L672,125" stroke="white" stroke-width="6" fill="none" />
<path d="M625,225 L628,225 L672,125 L675,125" stroke="darkred" stroke-width="3" fill="none" />
<path d="M628,275 L672,375" stroke="white" stroke-width="6" fill="none" />
<path d="M625,275 L628,275 L672,375 L675,375" stroke="darkred" stroke-width="3" fill="none" />
<path d="M628,325 L672,325" stroke="white" stroke-width="6" fill="none" />
<path d="M625,325 L628,325 L672,325 L675,325" stroke="darkred" stroke-width="3" fill="none" />
<path d="M628,375 L672,275" stroke="white" stroke-width="6" fill="none" />
<path d="M625,375 L628,375 L672,275 L675,275" stroke="darkred" stroke-width="3" fill="none" />
<path d="M675,125 L703,125 L722,144" stroke="darkred" stroke-width="3" fill="none" />
<path d="M728,144 L747,125 L775,125" stroke="darkred" stroke-width="3" fill="none" />
<path d="M675,175 L703,175 L722,156" stroke="darkred" stroke-width="3" fill="none" />
<path d="M728,156 L747,175 L775,175" stroke="darkred" stroke-width="3" fill="none" />
<path d="M700,143 L750,143 L750,157 L700,157 Z" stroke="black" fill="black" stroke-linejoin="miter" />
<text x="725" y="180" font-size="7" text-anchor="middle"></text>
<text x="725" y="126" font-size="7" text-anchor="middle">Θ=1.030117</text>
<path d="M700,143 L750,143 L750,147 L700,147 Z" stroke="black" fill="lightgray" stroke-linejoin="miter" />
<path d="M743,150 L753,150 L753,160 L743,160 Z" stroke="black" fill="aquamarine" stroke-linejoin="miter" />
<text x="748" y="157" font-size="6" text-anchor="middle">H</text>
<path d="M778,125 L822,175" stroke="white" stroke-width="6" fill="none" />
<path d="M775,125 L778,125 L822,175 L825,175" stroke="darkred" stroke-width="3" fill="none" />
<path d="M778,175 L822,125" stroke="white" stroke-width="6" fill="none" />
<path d="M775,175 L778,175 L822,125 L825,125" stroke="darkred" stroke-width="3" fill="none" />
<path d="M675,225 L703,225 L722,244" stroke="darkred" stroke-width="3" fill="none" />
<path d="M728,244 L747,225 L775,225" stroke="darkred" stroke-width="3" fill="none" />
<path d="M675,275 L703,275 L722,256" stroke="darkred" stroke-width="3" fill="none" />
<path d="M728,256 L747,275 L775,275" stroke="darkred" stroke-width="3" fill="none" />
<path d="M700,243 L750,243 L750,257 L700,257 Z" stroke="black" fill="black" stroke-linejoin="miter" />
<text x="725" y="280" font-size="7" text-anchor="middle"></text>
<text x="725" y="226" font-size="7" text-anchor="middle">Θ=1.030117</text>
<path d="M700,243 L750,243 L750,247 L700,247 Z" stroke="black" fill="lightgray" stroke-linejoin="miter" />
<path d="M743,250 L753,250 L753,260 L743,260 Z" stroke="black" fill="aquamarine" stroke-linejoin="miter" />
<text x="748" y="257" font-size="6" text-anchor="middle">H</text>
<path d="M675,325 L775,325" stroke="darkred" stroke-width="3" fill="none" />
<path d="M778,225 L822,275" stroke="white" stroke-width="6" fill="none" />
<path d="M775,225 L778,225 L822,275 L825,275" stroke="darkred" stroke-width="3" fill="none" />
<path d="M778,275 L822,325" stroke="white" stroke-width="6" fill="none" />
<path d="M775,275 L778,275 L822,325 L825,325" stroke="darkred" stroke-width="3" fill="none" />
<path d="M778,325 L822,225" stroke="white" stroke-width="6" fill="none" />
<path d="M775,325 L778,325 L822,225 L825,225" stroke="darkred" stroke-width="3" fill="none" />
<path d="M825,225 L853,225 L872,244" stroke="darkred" stroke-width="3" fill="none" />
<path d="M878,244 L897,225 L925,225" stroke="darkred" stroke-width="3" fill="none" />
<path d="M825,275 L853,275 L872,256" stroke="darkred" stroke-width="3" fill="none" />
<path d="M878,256 L897,275 L925,275" stroke="darkred" stroke-width="3" fill="none" />
<path d="M850,243 L900,243 L900,257 L850,257 Z" stroke="black" fill="black" stroke-linejoin="miter" />
<text x="875" y="285" font-size="7" text-anchor="middle"></text>
<text x="875" y="226" font-size="7" text-anchor="middle"></text>
<path d="M850,243 L900,243 L900,247 L850,247 Z" stroke="black" fill="lightgray" stroke-linejoin="miter" />
<path d="M893,250 L903,250 L903,260 L893,260 Z" stroke="black" fill="aquamarine" stroke-linejoin="miter" />
<text x="898" y="257" font-size="6" text-anchor="middle">H</text>
<path d="M675,75 L925,75" stroke="darkred" stroke-width="3" fill="none" />
<path d="M825,125 L925,125" stroke="darkred" stroke-width="3" fill="none" />
<path d="M825,175 L925,175" stroke="darkred" stroke-width="3" fill="none" />
<path d="M928,75 L972,275" stroke="white" stroke-width="6" fill="none" />
<path d="M925,75 L928,75 L972,275 L975,275" stroke="darkred" stroke-width="3" fill="none" />
<path d="M928,125 L972,225" stroke="white" stroke-width="6" fill="none" />
<path d="M925,125 L928,125 L972,225 L975,225" stroke="darkred" stroke-width="3" fill="none" />
<path d="M928,175 L972,75" stroke="white" stroke-width="6" fill="none" />
<path d="M925,175 L928,175 L972,75 L975,75" stroke="darkred" stroke-width="3" fill="none" />
<path d="M928,225 L972,175" stroke="white" stroke-width="6" fill="none" />
<path d="M925,225 L928,225 L972,175 L975,175" stroke="darkred" stroke-width="3" fill="none" />
<path d="M928,275 L972,125" stroke="white" stroke-width="6" fill="none" />
<path d="M925,275 L928,275 L972,125 L975,125" stroke="darkred" stroke-width="3" fill="none" />
<path d="M25,25 L975,25" stroke="darkred" stroke-width="3" fill="none" />
<path d="M825,325 L975,325" stroke="darkred" stroke-width="3" fill="none" />
<path d="M675,375 L975,375" stroke="darkred" stroke-width="3" fill="none" />
<path d="M975,25 L990,25" stroke-width="3" stroke="darkred" stroke-linejoin="miter" fill="none" />
<path d="M975,75 L990,75" stroke-width="3" stroke="darkred" stroke-linejoin="miter" fill="none" />
<path d="M975,125 L990,125" stroke-width="3" stroke="darkred" stroke-linejoin="miter" fill="none" />
<path d="M975,175 L990,175" stroke-width="3" stroke="darkred" stroke-linejoin="miter" fill="none" />
<path d="M975,225 L990,225" stroke-width="3" stroke="darkred" stroke-linejoin="miter" fill="none" />
<path d="M975,275 L990,275" stroke-width="3" stroke="darkred" stroke-linejoin="miter" fill="none" />
<path d="M975,325 L990,325" stroke-width="3" stroke="darkred" stroke-linejoin="miter" fill="none" />
<path d="M975,375 L990,375" stroke-width="3" stroke="darkred" stroke-linejoin="miter" fill="none" />
<text x="1000" y="28" font-size="9" text-anchor="end">0</text>
<text x="1000" y="78" font-size="9" text-anchor="end">1</text>
<text x="1000" y="128" font-size="9" text-anchor="end">2</text>
<text x="1000" y="178" font-size="9" text-anchor="end">3</text>
<text x="1000" y="228" font-size="9" text-anchor="end">4</text>
<text x="1000" y="278" font-size="9" text-anchor="end">5</text>
<text x="1000" y="328" font-size="9" text-anchor="end">6</text>
<text x="1000" y="378" font-size="9" text-anchor="end">7</text>
<text x="0" y="28" font-size="9" text-anchor="start">0</text>
<text x="0" y="78" font-size="9" text-anchor="start">1</text>
<text x="0" y="128" font-size="9" text-anchor="start">2</text>
<text x="0" y="178" font-size="9" text-anchor="start">3</text>
<text x="0" y="228" font-size="9" text-anchor="start">4</text>
<text x="0" y="278" font-size="9" text-anchor="start">5</text>
<text x="0" y="328" font-size="9" text-anchor="start">6</text>
<text x="0" y="378" font-size="9" text-anchor="start">7</text>
</svg>