<?xml version="1.0" encoding="UTF-8"?>
<svg xmlns="http://www.w3.org/2000/svg" xmlns:xlink="http://www.w3.org/1999/xlink"
     width="1607.5" height="531.25" viewBox="-36.0 0 1286.0 425.0">
<defs>
</defs>
<path d="M10,25 L25,25" stroke-width="3" stroke="darkred" stroke-linejoin="miter" fill="none" />
<path d="M10,75 L25,75" stroke-width="3" stroke="darkred" stroke-linejoin="miter" fill="none" />
<path d="M10,125 L25,125" stroke-width="3" stroke="darkred" stroke-linejoin="miter" fill="none" />
<path d="M10,175 L25,175" stroke-width="3" stroke="darkred" stroke-linejoin="miter" fill="none" />
<path d="M27,2 L1223,2 L1223,398 L27,398 Z" stroke="black" fill="lightblue" stroke-dasharray="1,2" stroke-linejoin="miter" />
<text x="29" y="405" font-size="8" text-anchor="start">CPLX</text>
<path d="M28,25 L72,175" stroke="white" stroke-width="6" fill="none" />
<path d="M25,25 L28,25 L72,175 L75,175" stroke="darkred" stroke-width="3" fill="none" />
<path d="M28,75 L72,125" stroke="white" stroke-width="6" fill="none" />
<path d="M25,75 L28,75 L72,125 L75,125" stroke="darkred" stroke-width="3" fill="none" />
<path d="M28,125 L72,25" stroke="white" stroke-width="6" fill="none" />
<path d="M25,125 L28,125 L72,25 L75,25" stroke="darkred" stroke-width="3" fill="none" />
<path d="M28,175 L72,75" stroke="white" stroke-width="6" fill="none" />
<path d="M25,175 L28,175 L72,75 L75,75" stroke="darkred" stroke-width="3" fill="none" />
<path d="M75,25 L103,25 L122,44" stroke="darkred" stroke-width="3" fill="none" />
<path d="M128,44 L147,25 L175,25" stroke="darkred" stroke-width="3" fill="none" />
<path d="M75,75 L103,75 L122,56" stroke="darkred" stroke-width="3" fill="none" />
<path d="M128,56 L147,75 L175,75" stroke="darkred" stroke-width="3" fill="none" />
<path d="M100,43 L150,43 L150,57 L100,57 Z" stroke="black" fill="black" stroke-linejoin="miter" />
<text x="125" y="80" font-size="7" text-anchor="middle"></text>
<text x="125" y="26" font-size="7" text-anchor="middle">Θ=1.910633</text>
<path d="M100,43 L150,43 L150,47 L100,47 Z" stroke="black" fill="lightgray" stroke-linejoin="miter" />
<path d="M143,50 L153,50 L153,60 L143,60 Z" stroke="black" fill="thistle" stroke-linejoin="miter" />
<text x="148" y="57" font-size="6" text-anchor="middle">Rx</text>
<path d="M75,125 L103,125 L122,144" stroke="darkred" stroke-width="3" fill="none" />
<path d="M128,144 L147,125 L175,125" stroke="darkred" stroke-width="3" fill="none" />
<path d="M75,175 L103,175 L122,156" stroke="darkred" stroke-width="3" fill="none" />
<path d="M128,156 L147,175 L175,175" stroke="darkred" stroke-width="3" fill="none" />
<path d="M100,143 L150,143 L150,157 L100,157 Z" stroke="black" fill="black" stroke-linejoin="miter" />
<text x="125" y="180" font-size="7" text-anchor="middle"></text>
<text x="125" y="126" font-size="7" text-anchor="middle">Θ=pi/4</text>
<path d="M100,143 L150,143 L150,147 L100,147 Z" stroke="black" fill="lightgray" stroke-linejoin="miter" />
<path d="M143,150 L153,150 L153,160 L143,160 Z" stroke="black" fill="lightsalmon" stroke-linejoin="miter" />
<text x="148" y="157" font-size="6" text-anchor="middle">Ry</text>
<path d="M175,25 L275,25" stroke="darkred" stroke-width="3" fill="none" />
<path d="M175,75 L275,75" stroke="darkred" stroke-width="3" fill="none" />
<path d="M175,125 L275,125" stroke="darkred" stroke-width="3" fill="none" />
<path d="M175,175 L275,175" stroke="darkred" stroke-width="3" fill="none" />
<path d="M175,225 L275,225" stroke="darkred" stroke-width="3" fill="none" />
<path d="M175,275 L275,275" stroke="darkred" stroke-width="3" fill="none" />
<path d="M175,325 L275,325" stroke="darkred" stroke-width="3" fill="none" />
<path d="M175,375 L275,375" stroke="darkred" stroke-width="3" fill="none" />
<path d="M177.5,2.5 L272.5,2.5 L272.5,397.5 L177.5,397.5 Z" stroke="darkred" fill="lightpink" stroke-linejoin="miter" />
<text x="185" y="24" font-size="8" text-anchor="start" font-weight="bold"><tspan x="185" dy="0em">HERALDED</tspan><tspan x="185" dy="1em">CNOT</tspan></text>
<path d="M275,125 L303,125 L322,144" stroke="darkred" stroke-width="3" fill="none" />
<path d="M328,144 L347,125 L375,125" stroke="darkred" stroke-width="3" fill="none" />
<path d="M275,175 L303,175 L322,156" stroke="darkred" stroke-width="3" fill="none" />
<path d="M328,156 L347,175 L375,175" stroke="darkred" stroke-width="3" fill="none" />
<path d="M300,143 L350,143 L350,157 L300,157 Z" stroke="black" fill="black" stroke-linejoin="miter" />
<text x="325" y="180" font-size="7" text-anchor="middle"></text>
<text x="325" y="126" font-size="7" text-anchor="middle">Θ=15*pi/4</text>
<path d="M300,153 L350,153 L350,157 L300,157 Z" stroke="black" fill="lightgray" stroke-linejoin="miter" />
<path d="M343,150 L353,150 L353,160 L343,160 Z" stroke="black" fill="lightsalmon" stroke-linejoin="miter" />
<text x="348" y="157" font-size="6" text-anchor="middle">Ry</text>
<path d="M275,25 L375,25" stroke="darkred" stroke-width="3" fill="none" />
<path d="M275,75 L375,75" stroke="darkred" stroke-width="3" fill="none" />
<path d="M375,25 L390,25" stroke-width="3" stroke="darkred" stroke-linejoin="miter" fill="none" />
<path d="M375,75 L390,75" stroke-width="3" stroke="darkred" stroke-linejoin="miter" fill="none" />
<path d="M375,125 L390,125" stroke-width="3" stroke="darkred" stroke-linejoin="miter" fill="none" />
<path d="M375,175 L390,175" stroke-width="3" stroke="darkred" stroke-linejoin="miter" fill="none" />
<path d="M157,225 C157,225,157,215,167,215 L175,215 L175,235 L167,235 C157,235,157,225,157,225 L157,225" stroke-width="1" stroke="black" stroke-linejoin="miter" fill="white" />
<text x="163" y="241" font-size="6" text-anchor="middle" font-style="italic">[herald0]</text>
<text x="167" y="228" font-size="7" text-anchor="middle">0</text>
<path d="M157,275 C157,275,157,265,167,265 L175,265 L175,285 L167,285 C157,285,157,275,157,275 L157,275" stroke-width="1" stroke="black" stroke-linejoin="miter" fill="white" />
<text x="163" y="291" font-size="6" text-anchor="middle" font-style="italic">[herald1]</text>
<text x="167" y="278" font-size="7" text-anchor="middle">1</text>
<path d="M157,325 C157,325,157,315,167,315 L175,315 L175,335 L167,335 C157,335,157,325,157,325 L157,325" stroke-width="1" stroke="black" stroke-linejoin="miter" fill="white" />
<text x="163" y="341" font-size="6" text-anchor="middle" font-style="italic">[herald2]</text>
<text x="167" y="328" font-size="7" text-anchor="middle">0</text>
<path d="M157,375 C157,375,157,365,167,365 L175,365 L175,385 L167,385 C157,385,157,375,157,375 L157,375" stroke-width="1" stroke="black" stroke-linejoin="miter" fill="white" />
<text x="163" y="391" font-size="6" text-anchor="middle" font-style="italic">[herald3]</text>
<text x="167" y="378" font-size="7" text-anchor="middle">1</text>
<path d="M-2,15 L10,15 L10,85 L-2,85 Z" stroke="black" fill="lightgray" stroke-linejoin="miter" />
<text x="4" y="27" font-size="7" text-anchor="middle">0</text>
<text x="4" y="77" font-size="7" text-anchor="middle">1</text>
<text x="-2" y="91" font-size="6" text-anchor="start" font-style="italic">[0]</text>
<path d="M-2,115 L10,115 L10,185 L-2,185 Z" stroke="black" fill="lightgray" stroke-linejoin="miter" />
<text x="4" y="127" font-size="7" text-anchor="middle">2</text>
<text x="4" y="177" font-size="7" text-anchor="middle">3</text>
<text x="-2" y="191" font-size="6" text-anchor="start" font-style="italic">[1]</text>
<path d="M283,235 L275,235 L275,215 L283,215 C283,215,293,215,293,225 C293,235,283,235,283,235 L283,235" stroke-width="1" stroke="black" stroke-linejoin="miter" fill="white" />
<text x="288" y="241" font-size="6" text-anchor="middle" font-style="italic">[herald0]</text>
<text x="283" y="228" font-size="7" text-anchor="middle">0</text>
<path d="M283,285 L275,285 L275,265 L283,265 C283,265,293,265,293,275 C293,285,283,285,283,285 L283,285" stroke-width="1" stroke="black" stroke-linejoin="miter" fill="white" />
<text x="288" y="291" font-size="6" text-anchor="middle" font-style="italic">[herald1]</text>
<text x="283" y="278" font-size="7" text-anchor="middle">1</text>
<path d="M283,335 L275,335 L275,315 L283,315 C283,315,293,315,293,325 C293,335,283,335,283,335 L283,335" stroke-width="1" stroke="black" stroke-linejoin="miter" fill="white" />
<text x="288" y="341" font-size="6" text-anchor="middle" font-style="italic">[herald2]</text>
<text x="283" y="328" font-size="7" text-anchor="middle">0</text>
<path d="M283,385 L275,385 L275,365 L283,365 C283,365,293,365,293,375 C293,385,283,385,283,385 L283,385" stroke-width="1" stroke="black" stroke-linejoin="miter" fill="white" />
<text x="288" y="391" font-size="6" text-anchor="middle" font-style="italic">[herald3]</text>
<text x="283" y="378" font-size="7" text-anchor="middle">1</text>
<path d="M390,15 L402,15 L402,85 L390,85 Z" stroke="black" fill="lightgray" stroke-linejoin="miter" />
<text x="396" y="27" font-size="7" text-anchor="middle">0</text>
<text x="396" y="77" font-size="7" text-anchor="middle">1</text>
<text x="402" y="91" font-size="6" text-anchor="end" font-style="italic">[0]</text>
<path d="M390,115 L402,115 L402,185 L390,185 Z" stroke="black" fill="lightgray" stroke-linejoin="miter" />
<text x="396" y="127" font-size="7" text-anchor="middle">2</text>
<text x="396" y="177" font-size="7" text-anchor="middle">3</text>
<text x="402" y="191" font-size="6" text-anchor="end" font-style="italic">[1]</text>
</svg>