<?xml version="1.0" encoding="UTF-8"?>
<svg xmlns="http://www.w3.org/2000/svg" xmlns:xlink="http://www.w3.org/1999/xlink"
     width="323.75" height="531.25" viewBox="-29.5 0 259.0 425.0">
<defs>
</defs>
<path d="M10,25 L25,25" stroke-width="3" stroke="darkred" stroke-linejoin="miter" fill="none" />
<path d="M10,75 L25,75" stroke-width="3" stroke="darkred" stroke-linejoin="miter" fill="none" />
<path d="M10,125 L25,125" stroke-width="3" stroke="darkred" stroke-linejoin="miter" fill="none" />
<path d="M10,175 L25,175" stroke-width="3" stroke="darkred" stroke-linejoin="miter" fill="none" />
<path d="M10,225 L25,225" stroke-width="3" stroke="darkred" stroke-linejoin="miter" fill="none" />
<path d="M10,275 L25,275" stroke-width="3" stroke="darkred" stroke-linejoin="miter" fill="none" />
<path d="M10,325 L25,325" stroke-width="3" stroke="darkred" stroke-linejoin="miter" fill="none" />
<path d="M10,375 L25,375" stroke-width="3" stroke="darkred" stroke-linejoin="miter" fill="none" />
<path d="M28,25 L72,75" stroke="white" stroke-width="6" fill="none" />
<path d="M25,25 L28,25 L72,75 L75,75" stroke="darkred" stroke-width="3" fill="none" />
<path d="M28,75 L72,25" stroke="white" stroke-width="6" fill="none" />
<path d="M25,75 L28,75 L72,25 L75,25" stroke="darkred" stroke-width="3" fill="none" />
<path d="M25,125 L75,125" stroke="darkred" stroke-width="3" fill="none" />
<path d="M25,175 L75,175" stroke="darkred" stroke-width="3" fill="none" />
<path d="M25,225 L75,225" stroke="darkred" stroke-width="3" fill="none" />
<path d="M25,275 L75,275" stroke="darkred" stroke-width="3" fill="none" />
<path d="M25,325 L75,325" stroke="darkred" stroke-width="3" fill="none" />
<path d="M25,375 L75,375" stroke="darkred" stroke-width="3" fill="none" />
<path d="M75,25 L175,25" stroke="darkred" stroke-width="3" fill="none" />
<path d="M75,75 L175,75" stroke="darkred" stroke-width="3" fill="none" />
<path d="M75,125 L175,125" stroke="darkred" stroke-width="3" fill="none" />
<path d="M75,175 L175,175" stroke="darkred" stroke-width="3" fill="none" />
<path d="M75,225 L175,225" stroke="darkred" stroke-width="3" fill="none" />
<path d="M75,275 L175,275" stroke="darkred" stroke-width="3" fill="none" />
<path d="M75,325 L175,325" stroke="darkred" stroke-width="3" fill="none" />
<path d="M75,375 L175,375" stroke="darkred" stroke-width="3" fill="none" />
<path d="M77.5,2.5 L172.5,2.5 L172.5,397.5 L77.5,397.5 Z" stroke="darkred" fill="lightpink" stroke-linejoin="miter" />
<text x="85" y="24" font-size="8" text-anchor="start" font-weight="bold"><tspan x="85" dy="0em">HERALDED</tspan><tspan x="85" dy="1em">CNOT</tspan></text>
<path d="M175,25 L190,25" stroke-width="3" stroke="darkred" stroke-linejoin="miter" fill="none" />
<path d="M175,75 L190,75" stroke-width="3" stroke="darkred" stroke-linejoin="miter" fill="none" />
<path d="M175,125 L190,125" stroke-width="3" stroke="darkred" stroke-linejoin="miter" fill="none" />
<path d="M175,175 L190,175" stroke-width="3" stroke="darkred" stroke-linejoin="miter" fill="none" />
<path d="M175,225 L190,225" stroke-width="3" stroke="darkred" stroke-linejoin="miter" fill="none" />
<path d="M175,275 L190,275" stroke-width="3" stroke="darkred" stroke-linejoin="miter" fill="none" />
<path d="M175,325 L190,325" stroke-width="3" stroke="darkred" stroke-linejoin="miter" fill="none" />
<path d="M175,375 L190,375" stroke-width="3" stroke="darkred" stroke-linejoin="miter" fill="none" />
<text x="200" y="28" font-size="9" text-anchor="end">0</text>
<text x="200" y="78" font-size="9" text-anchor="end">1</text>
<text x="200" y="128" font-size="9" text-anchor="end">2</text>
<text x="200" y="178" font-size="9" text-anchor="end">3</text>
<text x="200" y="228" font-size="9" text-anchor="end">4</text>
<text x="200" y="278" font-size="9" text-anchor="end">5</text>
<text x="200" y="328" font-size="9" text-anchor="end">6</text>
<text x="200" y="378" font-size="9" text-anchor="end">7</text>
<text x="0" y="28" font-size="9" text-anchor="start">0</text>
<text x="0" y="78" font-size="9" text-anchor="start">1</text>
<text x="0" y="128" font-size="9" text-anchor="start">2</text>
<text x="0" y="178" font-size="9" text-anchor="start">3</text>
<text x="0" y="228" font-size="9" text-anchor="start">4</text>
<text x="0" y="278" font-size="9" text-anchor="start">5</text>
<text x="0" y="328" font-size="9" text-anchor="start">6</text>
<text x="0" y="378" font-size="9" text-anchor="start">7</text>
</svg>