<?xml version="1.0" encoding="UTF-8"?>
<svg xmlns="http://www.w3.org/2000/svg" xmlns:xlink="http://www.w3.org/1999/xlink"
     width="573.75" height="531.25" viewBox="-29.5 0 459.0 425.0">
<defs>
</defs>
<path d="M10,25 L25,25" stroke-width="3" stroke="darkred" stroke-linejoin="miter" fill="none" />
<path d="M10,75 L25,75" stroke-width="3" stroke="darkred" stroke-linejoin="miter" fill="none" />
<path d="M10,125 L25,125" stroke-width="3" stroke="darkred" stroke-linejoin="miter" fill="none" />
<path d="M10,175 L25,175" stroke-width="3" stroke="darkred" stroke-linejoin="miter" fill="none" />
<path d="M10,225 L25,225" stroke-width="3" stroke="darkred" stroke-linejoin="miter" fill="none" />
<path d="M10,275 L25,275" stroke-width="3" stroke="darkred" stroke-linejoin="miter" fill="none" />
<path d="M10,325 L25,325" stroke-width="3" stroke="darkred" stroke-linejoin="miter" fill="none" />
<path d="M10,375 L25,375" stroke-width="3" stroke="darkred" stroke-linejoin="miter" fill="none" />
<path d="M28,25 L72,175" stroke="white" stroke-width="6" fill="none" />
<path d="M25,25 L28,25 L72,175 L75,175" stroke="darkred" stroke-width="3" fill="none" />
<path d="M28,75 L72,125" stroke="white" stroke-width="6" fill="none" />
<path d="M25,75 L28,75 L72,125 L75,125" stroke="darkred" stroke-width="3" fill="none" />
<path d="M28,125 L72,25" stroke="white" stroke-width="6" fill="none" />
<path d="M25,125 L28,125 L72,25 L75,25" stroke="darkred" stroke-width="3" fill="none" />
<path d="M28,175 L72,75" stroke="white" stroke-width="6" fill="none" />
<path d="M25,175 L28,175 L72,75 L75,75" stroke="darkred" stroke-width="3" fill="none" />
<path d="M75,25 L103,25 L122,44" stroke="darkred" stroke-width="3" fill="none" />
<path d="M128,44 L147,25 L175,25" stroke="darkred" stroke-width="3" fill="none" />
<path d="M75,75 L103,75 L122,56" stroke="darkred" stroke-width="3" fill="none" />
<path d="M128,56 L147,75 L175,75" stroke="darkred" stroke-width="3" fill="none" />
<path d="M100,43 L150,43 L150,57 L100,57 Z" stroke="black" fill="black" stroke-linejoin="miter" />
<text x="125" y="80" font-size="7" text-anchor="middle"></text>
<text x="125" y="26" font-size="7" text-anchor="middle">Θ=1.910633</text>
<path d="M100,43 L150,43 L150,47 L100,47 Z" stroke="black" fill="lightgray" stroke-linejoin="miter" />
<path d="M143,50 L153,50 L153,60 L143,60 Z" stroke="black" fill="thistle" stroke-linejoin="miter" />
<text x="148" y="57" font-size="6" text-anchor="middle">Rx</text>
<path d="M75,125 L103,125 L122,144" stroke="darkred" stroke-width="3" fill="none" />
<path d="M128,144 L147,125 L175,125" stroke="darkred" stroke-width="3" fill="none" />
<path d="M75,175 L103,175 L122,156" stroke="darkred" stroke-width="3" fill="none" />
<path d="M128,156 L147,175 L175,175" stroke="darkred" stroke-width="3" fill="none" />
<path d="M100,143 L150,143 L150,157 L100,157 Z" stroke="black" fill="black" stroke-linejoin="miter" />
<text x="125" y="180" font-size="7" text-anchor="middle"></text>
<text x="125" y="126" font-size="7" text-anchor="middle">Θ=pi/4</text>
<path d="M100,143 L150,143 L150,147 L100,147 Z" stroke="black" fill="lightgray" stroke-linejoin="miter" />
<path d="M143,150 L153,150 L153,160 L143,160 Z" stroke="black" fill="lightsalmon" stroke-linejoin="miter" />
<text x="148" y="157" font-size="6" text-anchor="middle">Ry</text>
<path d="M25,225 L175,225" stroke="darkred" stroke-width="3" fill="none" />
<path d="M25,275 L175,275" stroke="darkred" stroke-width="3" fill="none" />
<path d="M25,325 L175,325" stroke="darkred" stroke-width="3" fill="none" />
<path d="M25,375 L175,375" stroke="darkred" stroke-width="3" fill="none" />
<path d="M175,25 L275,25" stroke="darkred" stroke-width="3" fill="none" />
<path d="M175,75 L275,75" stroke="darkred" stroke-width="3" fill="none" />
<path d="M175,125 L275,125" stroke="darkred" stroke-width="3" fill="none" />
<path d="M175,175 L275,175" stroke="darkred" stroke-width="3" fill="none" />
<path d="M175,225 L275,225" stroke="darkred" stroke-width="3" fill="none" />
<path d="M175,275 L275,275" stroke="darkred" stroke-width="3" fill="none" />
<path d="M175,325 L275,325" stroke="darkred" stroke-width="3" fill="none" />
<path d="M175,375 L275,375" stroke="darkred" stroke-width="3" fill="none" />
<path d="M177.5,2.5 L272.5,2.5 L272.5,397.5 L177.5,397.5 Z" stroke="darkred" fill="lightpink" stroke-linejoin="miter" />
<text x="185" y="24" font-size="8" text-anchor="start" font-weight="bold"><tspan x="185" dy="0em">HERALDED</tspan><tspan x="185" dy="1em">CNOT</tspan></text>
<path d="M275,125 L303,125 L322,144" stroke="darkred" stroke-width="3" fill="none" />
<path d="M328,144 L347,125 L375,125" stroke="darkred" stroke-width="3" fill="none" />
<path d="M275,175 L303,175 L322,156" stroke="darkred" stroke-width="3" fill="none" />
<path d="M328,156 L347,175 L375,175" stroke="darkred" stroke-width="3" fill="none" />
<path d="M300,143 L350,143 L350,157 L300,157 Z" stroke="black" fill="black" stroke-linejoin="miter" />
<text x="325" y="180" font-size="7" text-anchor="middle"></text>
<text x="325" y="126" font-size="7" text-anchor="middle">Θ=15*pi/4</text>
<path d="M300,153 L350,153 L350,157 L300,157 Z" stroke="black" fill="lightgray" stroke-linejoin="miter" />
<path d="M343,150 L353,150 L353,160 L343,160 Z" stroke="black" fill="lightsalmon" stroke-linejoin="miter" />
<text x="348" y="157" font-size="6" text-anchor="middle">Ry</text>
<path d="M275,25 L375,25" stroke="darkred" stroke-width="3" fill="none" />
<path d="M275,75 L375,75" stroke="darkred" stroke-width="3" fill="none" />
<path d="M275,225 L375,225" stroke="darkred" stroke-width="3" fill="none" />
<path d="M275,275 L375,275" stroke="darkred" stroke-width="3" fill="none" />
<path d="M275,325 L375,325" stroke="darkred" stroke-width="3" fill="none" />
<path d="M275,375 L375,375" stroke="darkred" stroke-width="3" fill="none" />
<path d="M375,25 L390,25" stroke-width="3" stroke="darkred" stroke-linejoin="miter" fill="none" />
<path d="M375,75 L390,75" stroke-width="3" stroke="darkred" stroke-linejoin="miter" fill="none" />
<path d="M375,125 L390,125" stroke-width="3" stroke="darkred" stroke-linejoin="miter" fill="none" />
<path d="M375,175 L390,175" stroke-width="3" stroke="darkred" stroke-linejoin="miter" fill="none" />
<path d="M375,225 L390,225" stroke-width="3" stroke="darkred" stroke-linejoin="miter" fill="none" />
<path d="M375,275 L390,275" stroke-width="3" stroke="darkred" stroke-linejoin="miter" fill="none" />
<path d="M375,325 L390,325" stroke-width="3" stroke="darkred" stroke-linejoin="miter" fill="none" />
<path d="M375,375 L390,375" stroke-width="3" stroke="darkred" stroke-linejoin="miter" fill="none" />
<text x="400" y="28" font-size="9" text-anchor="end">0</text>
<text x="400" y="78" font-size="9" text-anchor="end">1</text>
<text x="400" y="128" font-size="9" text-anchor="end">2</text>
<text x="400" y="178" font-size="9" text-anchor="end">3</text>
<text x="400" y="228" font-size="9" text-anchor="end">4</text>
<text x="400" y="278" font-size="9" text-anchor="end">5</text>
<text x="400" y="328" font-size="9" text-anchor="end">6</text>
<text x="400" y="378" font-size="9" text-anchor="end">7</text>
<text x="0" y="28" font-size="9" text-anchor="start">0</text>
<text x="0" y="78" font-size="9" text-anchor="start">1</text>
<text x="0" y="128" font-size="9" text-anchor="start">2</text>
<text x="0" y="178" font-size="9" text-anchor="start">3</text>
<text x="0" y="228" font-size="9" text-anchor="start">4</text>
<text x="0" y="278" font-size="9" text-anchor="start">5</text>
<text x="0" y="328" font-size="9" text-anchor="start">6</text>
<text x="0" y="378" font-size="9" text-anchor="start">7</text>
</svg>